<svg width="56" height="56" viewBox="0 0 56 56" fill="none" xmlns="http://www.w3.org/2000/svg">
<g clip-path="url(#clip0_824_11221)">
<mask id="mask0_824_11221" style="mask-type:luminance" maskUnits="userSpaceOnUse" x="0" y="0" width="56" height="56">
<path d="M0 0H56V56H0V0Z" fill="white"/>
</mask>
<g mask="url(#mask0_824_11221)">
<path d="M18.6069 12.5082C18.4432 12.6784 18.3097 12.8753 18.212 13.0903L18.2002 13.0785L1.67134 50.3111L1.68755 50.3273C1.38102 50.9212 1.89387 52.1297 2.9446 53.1819C3.99387 54.2311 5.20229 54.744 5.79618 54.4374L5.81092 54.4522L43.0465 37.9248L43.0347 37.9115C43.2528 37.8084 43.4503 37.6831 43.6168 37.5166C45.9187 35.2147 42.1859 27.7505 35.2802 20.8448C28.3745 13.9377 20.9088 10.2063 18.6069 12.5082Z" fill="#0EBC7F"/>
<path d="M20.6318 19.1567L2.08692 49.3761L1.67134 50.3118L1.68755 50.3266C1.38102 50.922 1.89387 52.1289 2.9446 53.1811C3.26058 53.4935 3.61112 53.7689 3.98944 54.002L26.5265 26.5251L20.6318 19.1567Z" fill="#97E2C8"/>
<path d="M35.3852 20.7291C42.2673 27.6141 46.0886 34.9531 43.9164 37.1238C41.7456 39.2945 34.4067 35.4747 27.5202 28.5926C20.6366 21.7076 16.8168 14.3672 18.9875 12.195C21.1597 10.0242 28.4987 13.8455 35.3852 20.7291Z" fill="#086B48"/>
<path d="M35.3716 31.1836C35.0664 31.1832 34.7689 31.0881 34.52 30.9115C34.2711 30.7349 34.0831 30.4855 33.9819 30.1976C33.8807 29.9097 33.8713 29.5975 33.955 29.304C34.0386 29.0105 34.2112 28.7502 34.449 28.559C34.7703 28.3011 42.4335 22.2825 53.2636 23.8314C53.4551 23.8587 53.6394 23.9234 53.8059 24.022C53.9724 24.1205 54.1178 24.2509 54.2339 24.4057C54.3499 24.5605 54.4344 24.7367 54.4823 24.9241C54.5302 25.1116 54.5408 25.3066 54.5133 25.4981C54.4867 25.6901 54.4224 25.875 54.324 26.042C54.2255 26.209 54.095 26.3548 53.9399 26.471C53.7847 26.5872 53.6081 26.6715 53.4202 26.719C53.2322 26.7665 53.0368 26.7763 52.845 26.7478C43.2764 25.3891 36.3589 30.8063 36.2911 30.8609C36.0304 31.0702 35.7059 31.1841 35.3716 31.1836Z" fill="#F11834"/>
<path d="M9.95231 25.0527C9.72244 25.0528 9.49574 24.9991 9.29033 24.896C9.08492 24.7928 8.90649 24.643 8.7693 24.4586C8.63212 24.2741 8.53998 24.0601 8.50025 23.8337C8.46053 23.6073 8.47432 23.3748 8.54052 23.1546C10.2102 17.5944 11.7237 8.72137 9.86389 6.40916C9.65462 6.14684 9.3422 5.88895 8.62305 5.94347C7.23926 6.04811 7.37189 8.966 7.37336 8.99547C7.39208 9.19071 7.37164 9.38772 7.31323 9.57495C7.25483 9.76218 7.15964 9.93587 7.03324 10.0858C6.90684 10.2358 6.75178 10.359 6.57714 10.4483C6.4025 10.5376 6.2118 10.5911 6.01622 10.6057C5.82063 10.6203 5.6241 10.5957 5.43813 10.5334C5.25217 10.4711 5.08051 10.3723 4.93323 10.2428C4.78595 10.1132 4.666 9.95563 4.58042 9.77916C4.49484 9.60268 4.44534 9.4109 4.43484 9.21505C4.28157 7.18284 4.91526 3.26874 8.40052 3.00495C9.95673 2.88705 11.2492 3.42789 12.1628 4.56263C15.6569 8.91147 12.1098 21.5203 11.3626 24.0035C11.2714 24.3067 11.085 24.5724 10.831 24.7614C10.577 24.9504 10.2689 25.0525 9.95231 25.0527Z" fill="#F11834"/>
<path d="M41.2624 15.4731C41.2623 15.7635 41.205 16.051 41.0938 16.3192C40.9826 16.5875 40.8196 16.8312 40.6142 17.0365C40.4088 17.2417 40.165 17.4045 39.8966 17.5156C39.6283 17.6266 39.3408 17.6837 39.0504 17.6836C38.76 17.6835 38.4725 17.6262 38.2042 17.515C37.936 17.4038 37.6923 17.2408 37.487 17.0354C37.2817 16.83 37.1189 16.5862 37.0079 16.3179C36.8968 16.0495 36.8397 15.762 36.8398 15.4716C36.84 14.8851 37.0732 14.3228 37.488 13.9082C37.9029 13.4937 38.4654 13.2609 39.0518 13.2611C39.6383 13.2613 40.2007 13.4944 40.6152 13.9093C41.0298 14.3241 41.2626 14.8866 41.2624 15.4731Z" fill="#FFCC4D"/>
<path d="M7.36887 27.9999C7.36877 28.387 7.29242 28.7704 7.14417 29.128C6.99593 29.4857 6.77869 29.8106 6.50487 30.0843C6.23104 30.358 5.90599 30.5751 5.54827 30.7231C5.19055 30.8712 4.80718 30.9474 4.42002 30.9473C4.03287 30.9472 3.64953 30.8708 3.29189 30.7226C2.93425 30.5743 2.6093 30.3571 2.33562 30.0833C2.06193 29.8094 1.84485 29.4844 1.69679 29.1267C1.54872 28.769 1.47256 28.3856 1.47266 27.9984C1.47285 27.2165 1.78364 26.4668 2.33666 25.914C2.88967 25.3613 3.63961 25.0509 4.4215 25.0511C5.20338 25.0513 5.95317 25.362 6.50591 25.9151C7.05865 26.4681 7.36906 27.218 7.36887 27.9999Z" fill="#FFCC4D"/>
<path d="M55.5241 39.311C55.524 39.6013 55.4667 39.8889 55.3555 40.1571C55.2443 40.4254 55.0813 40.6691 54.8759 40.8743C54.6705 41.0796 54.4267 41.2424 54.1584 41.3534C53.89 41.4645 53.6025 41.5216 53.3121 41.5215C53.0217 41.5214 52.7342 41.4641 52.4659 41.3529C52.1977 41.2417 51.954 41.0787 51.7487 40.8733C51.5434 40.6679 51.3806 40.4241 51.2696 40.1558C51.1586 39.8874 51.1015 39.5999 51.1016 39.3095C51.1018 38.723 51.3349 38.1607 51.7497 37.7461C52.1646 37.3315 52.7271 37.0988 53.3136 37.099C53.9 37.0992 54.4624 37.3323 54.8769 37.7471C55.2915 38.162 55.5243 38.7245 55.5241 39.311Z" fill="#FFCC4D"/>
<path d="M38.3171 47.8949C38.317 48.1853 38.2597 48.4729 38.1485 48.7411C38.0372 49.0093 37.8743 49.2531 37.6689 49.4583C37.4635 49.6636 37.2196 49.8264 36.9513 49.9374C36.683 50.0485 36.3954 50.1056 36.1051 50.1055C35.8147 50.1054 35.5271 50.0481 35.2589 49.9369C34.9907 49.8256 34.7469 49.6627 34.5417 49.4573C34.3364 49.2519 34.1736 49.0081 34.0626 48.7397C33.9515 48.4714 33.8944 48.1839 33.8945 47.8935C33.8947 47.307 34.1279 46.7446 34.5427 46.3301C34.9575 45.9155 35.5201 45.6827 36.1065 45.6829C36.693 45.6831 37.2554 45.9163 37.6699 46.3311C38.0845 46.746 38.3173 47.3085 38.3171 47.8949Z" fill="#F11834"/>
<path d="M45.6853 7.36708C45.6852 7.75424 45.6088 8.13758 45.4606 8.49522C45.3123 8.85286 45.0951 9.17781 44.8213 9.45149C44.5474 9.72518 44.2224 9.94226 43.8647 10.0903C43.507 10.2384 43.1236 10.3145 42.7364 10.3145C42.3493 10.3144 41.9659 10.238 41.6083 10.0898C41.2507 9.94151 40.9257 9.72428 40.652 9.45045C40.3783 9.17663 40.1613 8.85158 40.0132 8.49386C39.8651 8.13614 39.789 7.75276 39.7891 7.36561C39.7893 6.58372 40.1 5.83394 40.6531 5.2812C41.2061 4.72846 41.956 4.41805 42.7379 4.41824C43.5198 4.41844 44.2696 4.72923 44.8223 5.28224C45.3751 5.83526 45.6855 6.5852 45.6853 7.36708Z" fill="#F11834"/>
<path d="M51.5788 14.0004C51.5787 14.2908 51.5214 14.5783 51.4102 14.8466C51.299 15.1148 51.136 15.3585 50.9306 15.5638C50.7252 15.7691 50.4814 15.9319 50.213 16.0429C49.9447 16.1539 49.6572 16.211 49.3668 16.2109C49.0764 16.2108 48.7889 16.1535 48.5206 16.0423C48.2524 15.9311 48.0087 15.7682 47.8034 15.5628C47.5981 15.3573 47.4353 15.1135 47.3243 14.8452C47.2133 14.5769 47.1562 14.2893 47.1563 13.9989C47.1564 13.4125 47.3896 12.8501 47.8044 12.4356C48.2193 12.021 48.7818 11.7882 49.3683 11.7884C49.9547 11.7886 50.5171 12.0218 50.9316 12.4366C51.3462 12.8514 51.579 13.4139 51.5788 14.0004Z" fill="#F11834"/>
</g>
<path d="M29.0911 21.2952C28.9408 21.4171 28.7678 21.5079 28.5821 21.5623C28.3964 21.6167 28.2017 21.6336 28.0094 21.612C26.7302 21.4735 25.6544 21.0284 24.9014 20.3255C24.1041 19.5813 23.7106 18.5836 23.8182 17.5815C24.0069 15.8249 25.7694 14.2126 28.7742 14.5383C29.9429 14.6636 30.4645 14.2878 30.4808 14.108C30.5014 13.9297 30.0725 13.4507 28.9054 13.324C27.6248 13.1855 26.5504 12.7404 25.7959 12.0375C24.9986 11.2933 24.6037 10.2941 24.7128 9.29348C24.9043 7.53685 26.6654 5.92464 29.6673 6.25032C30.5191 6.34169 30.9671 6.16485 31.1572 6.05138C31.3104 5.95853 31.3709 5.87011 31.3768 5.82001C31.393 5.64169 30.97 5.16274 29.7984 5.03601C29.4159 4.9868 29.0679 4.78959 28.8291 4.48669C28.5903 4.1838 28.4798 3.79937 28.5213 3.41591C28.5628 3.03246 28.7529 2.68054 29.0509 2.4357C29.3489 2.19086 29.7311 2.07261 30.1153 2.10632C33.1172 2.42906 34.4965 4.37874 34.3064 6.13685C34.1163 7.89348 32.3553 9.50422 29.3504 9.18001C28.4986 9.08717 28.0521 9.26401 27.862 9.37748C27.7102 9.47032 27.6483 9.56022 27.6424 9.60885C27.6233 9.78864 28.0492 10.2676 29.2208 10.3943C32.2226 10.7171 33.602 12.6667 33.4119 14.4249C33.2218 16.1815 31.4593 17.7937 28.4574 17.468C27.6056 17.3766 27.1576 17.552 26.966 17.6655C26.8142 17.7583 26.7553 17.8482 26.7494 17.8983C26.7302 18.0766 27.1561 18.5556 28.3262 18.6823C28.6166 18.7125 28.8915 18.8284 29.1158 19.0154C29.3401 19.2023 29.5037 19.4518 29.5857 19.732C29.6678 20.0122 29.6645 20.3105 29.5764 20.5889C29.4883 20.8673 29.3194 21.1131 29.0911 21.2952Z" fill="#FFCC4D"/>
</g>
<defs>
<clipPath id="clip0_824_11221">
<rect width="56" height="56" fill="white"/>
</clipPath>
</defs>
</svg>
