<svg width="160" height="160" viewBox="0 0 160 160" fill="none" xmlns="http://www.w3.org/2000/svg">
<circle cx="80" cy="80" r="80" fill="#5CC9FF"/>
<path d="M65.8033 81.0977C65.8033 81.0977 67.3374 69.145 79.6536 67.7357C91.9698 66.3263 96.1641 77.6235 96.1641 77.6235" stroke="#029EEB" stroke-width="3" stroke-linecap="round"/>
<path d="M70 51C70 55.8978 67.2474 58.7935 59.3011 57.2939C57.1533 56.8885 54.9344 57.1064 52.8402 57.7325C45.4991 59.9271 42 55.8701 42 51C42 45.4772 48.268 41 56 41C63.732 41 70 45.4772 70 51Z" fill="white"/>
<path d="M68 50.6487C68 54.7783 65.7576 57.2622 59.3342 56.1826C57.1608 55.8173 54.9296 56.0484 52.7987 56.6109C46.8425 58.1831 44 54.7491 44 50.6487C44 45.8721 49.3726 42 56 42C62.6274 42 68 45.8721 68 50.6487Z" fill="#029EEB"/>
<path d="M88 51C88 55.8978 90.7526 58.7935 98.6989 57.2939C100.847 56.8885 103.066 57.1064 105.16 57.7325C112.501 59.9271 116 55.8701 116 51C116 45.4772 109.732 41 102 41C94.268 41 88 45.4772 88 51Z" fill="white"/>
<path d="M90 50.6487C90 54.7783 92.2424 57.2622 98.6658 56.1826C100.839 55.8173 103.07 56.0484 105.201 56.6109C111.157 58.1831 114 54.7491 114 50.6487C114 45.8721 108.627 42 102 42C95.3726 42 90 45.8721 90 50.6487Z" fill="#029EEB"/>
<path d="M58.7281 44.9996C59.2438 46.8626 57.0756 49.3435 54.4143 50.0802C51.7529 50.8168 48.7281 51 47.7282 47.5001C47.2126 45.6371 49.8856 44.0704 52.547 43.3338C55.2083 42.5972 58.2125 43.1367 58.7281 44.9996Z" fill="white"/>
<path d="M104.728 45.1364C105.244 46.9993 103.076 49.4803 100.414 50.2169C97.7529 50.9535 94.7281 51.1367 93.7282 47.6368C93.2126 45.7738 95.8856 44.2072 98.547 43.4705C101.208 42.7339 104.213 43.2734 104.728 45.1364Z" fill="white"/>
<path d="M65.2367 47.7747C65.5081 48.7553 63.9334 50.047 61.7196 50.6598C59.5057 51.2725 57.4996 50.9804 57.2281 49.9998C56.9567 49.0192 58.7281 48.5002 59.2281 46.5002C59.7282 44.4993 65.2281 45.5 65.2367 47.7747Z" fill="white"/>
<path d="M111.237 47.9114C111.508 48.892 109.933 50.1837 107.72 50.7965C105.506 51.4092 103.5 51.1171 103.228 50.1365C102.957 49.1559 104.728 48.6369 105.228 46.6369C105.728 44.636 111.228 45.6367 111.237 47.9114Z" fill="white"/>
<path d="M47 41.5C51.638 39.8436 55.988 37.4708 59.8916 34.468L60.5 34" stroke="#029EEB" stroke-width="4" stroke-linecap="round"/>
<path d="M110.5 41.5C105.862 39.8436 101.512 37.4708 97.6084 34.468L97 34" stroke="#029EEB" stroke-width="4" stroke-linecap="round"/>
<path d="M137 50.3333C137 52.9107 134.985 55 132.5 55C130.015 55 128 52.9107 128 50.3333C128 46.9173 129.537 42.7719 130.07 41.4367C130.162 41.2061 130.435 41.1241 130.637 41.2687C132.071 42.2973 137 46.1371 137 50.3333Z" fill="white"/>
<path d="M144 56.3333C144 57.8061 142.881 59 141.5 59C140.119 59 139 57.8061 139 56.3333C139 54.5305 139.728 52.3721 140.073 51.4517C140.162 51.2157 140.441 51.1326 140.641 51.286C141.602 52.0235 144 54.0892 144 56.3333Z" fill="white"/>
</svg>
