<svg width="296" height="236" viewBox="0 0 296 236" fill="none" xmlns="http://www.w3.org/2000/svg">
<rect x="0.5" y="0.5" width="55" height="55" rx="27.5" fill="white" stroke="#F5F5F5"/>
<rect x="60.5" y="0.5" width="55" height="55" rx="27.5" fill="white" stroke="#F5F5F5"/>
<rect x="120.5" y="0.5" width="55" height="55" rx="27.5" fill="white" stroke="#F5F5F5"/>
<rect x="180.5" y="0.5" width="55" height="55" rx="27.5" fill="white" stroke="#F5F5F5"/>
<rect x="240.5" y="0.5" width="55" height="55" rx="27.5" fill="white" stroke="#F5F5F5"/>
<rect x="0.5" y="60.5" width="55" height="55" rx="27.5" fill="white" stroke="#F5F5F5"/>
<rect x="60.5" y="60.5" width="55" height="55" rx="27.5" fill="white" stroke="#F5F5F5"/>
<rect x="120.5" y="60.5" width="55" height="55" rx="27.5" fill="white" stroke="#F5F5F5"/>
<rect x="180" y="60" width="56" height="56" rx="28" fill="#A4A7AE"/>
<mask id="mask0_562_17519" style="mask-type:alpha" maskUnits="userSpaceOnUse" x="180" y="60" width="56" height="56">
<rect x="180" y="60" width="56" height="56" rx="1" fill="#D9D9D9"/>
</mask>
<g mask="url(#mask0_562_17519)">
<path d="M208.223 93.1579C207.033 93.1579 206.045 92.1907 206.159 91.0065C206.246 90.0964 206.397 89.3829 206.612 88.8658C206.974 87.9939 207.742 87.0421 208.916 86.0105C209.94 85.1263 210.72 84.3588 211.257 83.7079C211.794 83.057 212.063 82.314 212.063 81.4789C212.063 80.4719 211.719 79.6368 211.032 78.9737C210.346 78.3105 209.39 77.9789 208.167 77.9789C206.893 77.9789 205.925 78.3596 205.263 79.1211C205.153 79.2476 205.049 79.3745 204.949 79.5017C204.204 80.4571 202.915 81.0455 201.797 80.576C200.783 80.1501 200.246 78.995 200.824 78.0594C201.35 77.2068 202.037 76.4309 202.885 75.7316C204.283 74.5772 206.044 74 208.167 74C210.789 74 212.806 74.7184 214.217 76.1553C215.628 77.5921 216.333 79.3175 216.333 81.3316C216.333 82.5596 216.065 83.6096 215.528 84.4816C214.991 85.3535 214.148 86.3421 212.999 87.4474C211.775 88.6018 211.032 89.4798 210.77 90.0816C210.665 90.323 210.581 90.6327 210.518 91.0106C210.322 92.1841 209.413 93.1579 208.223 93.1579ZM208.167 102C207.343 102 206.637 101.711 206.05 101.134C205.463 100.557 205.17 99.8632 205.17 99.0526C205.17 98.2421 205.463 97.5482 206.05 96.9711C206.637 96.3939 207.343 96.1053 208.167 96.1053C208.991 96.1053 209.696 96.3939 210.283 96.9711C210.87 97.5482 211.164 98.2421 211.164 99.0526C211.164 99.8632 210.87 100.557 210.283 101.134C209.696 101.711 208.991 102 208.167 102Z" fill="white"/>
</g>
<rect x="240.5" y="60.5" width="55" height="55" rx="27.5" fill="white" stroke="#F5F5F5"/>
<rect x="163" y="20" width="90" height="40" rx="16" fill="#E9EAEB"/>
<path d="M182.719 34.5469C183.318 34.5469 183.841 34.7448 184.289 35.1406C184.742 35.5312 185.091 36.0911 185.336 36.8203C185.586 37.5495 185.714 38.401 185.719 39.375C185.714 40.349 185.586 41.2005 185.336 41.9297C185.091 42.6589 184.742 43.2214 184.289 43.6172C183.841 44.0078 183.318 44.2031 182.719 44.2031C182.12 44.2031 181.594 44.0078 181.141 43.6172C180.693 43.2214 180.346 42.6589 180.102 41.9297C179.857 41.2005 179.734 40.349 179.734 39.375C179.734 38.401 179.857 37.5495 180.102 36.8203C180.346 36.0911 180.693 35.5312 181.141 35.1406C181.594 34.7448 182.12 34.5469 182.719 34.5469ZM182.719 35.7031C182.344 35.7031 182.018 35.8516 181.742 36.1484C181.466 36.4453 181.253 36.8724 181.102 37.4297C180.956 37.9818 180.885 38.6302 180.891 39.375C180.885 40.1198 180.956 40.7682 181.102 41.3203C181.253 41.8724 181.466 42.2969 181.742 42.5938C182.023 42.8906 182.349 43.0365 182.719 43.0312C183.089 43.0365 183.411 42.8906 183.688 42.5938C183.969 42.2969 184.185 41.8724 184.336 41.3203C184.487 40.7682 184.562 40.1198 184.562 39.375C184.562 38.625 184.487 37.974 184.336 37.4219C184.185 36.8698 183.971 36.4453 183.695 36.1484C183.419 35.8516 183.094 35.7031 182.719 35.7031ZM191.469 47.2656H190.281V39.9062H188.344V46.5625H187.172V33.6719H188.344V38.8906H190.281V33.375H191.469V47.2656ZM204.897 47.2656H203.709V39.9062H201.772V46.5625H200.6V33.6719H201.772V38.8906H203.709V33.375H204.897V47.2656ZM198.819 43.5312H193.506V35H198.819V43.5312ZM194.663 42.5469H197.663V35.9844H194.663V42.5469ZM213.356 36.7812H206.388V35.7812H209.278V33.7969H210.497V35.7812H213.356V36.7812ZM209.872 37.7188C210.45 37.7188 210.966 37.8542 211.419 38.125C211.877 38.3906 212.234 38.763 212.489 39.2422C212.749 39.7214 212.882 40.2656 212.888 40.875C212.882 41.4896 212.749 42.0391 212.489 42.5234C212.234 43.0026 211.877 43.3802 211.419 43.6562C210.966 43.9271 210.45 44.0625 209.872 44.0625C209.299 44.0625 208.786 43.9271 208.333 43.6562C207.88 43.3802 207.526 43 207.27 42.5156C207.015 42.0312 206.888 41.4844 206.888 40.875C206.888 40.2708 207.015 39.7292 207.27 39.25C207.526 38.7656 207.88 38.3906 208.333 38.125C208.786 37.8542 209.299 37.7188 209.872 37.7188ZM209.872 38.75C209.513 38.7552 209.187 38.8516 208.895 39.0391C208.609 39.2214 208.385 39.474 208.223 39.7969C208.062 40.1146 207.981 40.474 207.981 40.875C207.981 41.2812 208.062 41.6458 208.223 41.9688C208.39 42.2917 208.617 42.5443 208.903 42.7266C209.19 42.9036 209.513 42.9896 209.872 42.9844C210.236 42.9896 210.565 42.9036 210.856 42.7266C211.148 42.5443 211.377 42.2917 211.544 41.9688C211.71 41.6458 211.794 41.2812 211.794 40.875C211.794 40.474 211.71 40.1146 211.544 39.7969C211.377 39.474 211.148 39.2214 210.856 39.0391C210.565 38.8516 210.236 38.7552 209.872 38.75ZM218.247 47.2656H217.075V40.25H215.231V46.5781H214.075V33.7188H215.231V39.2344H217.075V33.375H218.247V47.2656ZM232.566 45.4844H219.847V44.4531H223.003V40.7031C222.399 40.3906 221.93 39.9896 221.597 39.5C221.264 39.0052 221.097 38.4479 221.097 37.8281C221.097 37.1198 221.313 36.4974 221.745 35.9609C222.178 35.4193 222.777 35 223.542 34.7031C224.313 34.4062 225.191 34.2552 226.175 34.25C227.159 34.2552 228.034 34.4062 228.8 34.7031C229.571 35 230.172 35.4193 230.605 35.9609C231.037 36.4974 231.253 37.1198 231.253 37.8281C231.253 38.4375 231.092 38.987 230.769 39.4766C230.446 39.9609 229.993 40.3594 229.409 40.6719V44.4531H232.566V45.4844ZM226.175 35.2656C225.42 35.2604 224.748 35.3646 224.159 35.5781C223.571 35.7917 223.11 36.0938 222.777 36.4844C222.448 36.8698 222.284 37.3177 222.284 37.8281C222.284 38.3385 222.448 38.7917 222.777 39.1875C223.11 39.5781 223.571 39.8828 224.159 40.1016C224.748 40.3151 225.42 40.4219 226.175 40.4219C226.925 40.4219 227.594 40.3125 228.183 40.0938C228.771 39.875 229.232 39.5703 229.566 39.1797C229.899 38.7891 230.066 38.3385 230.066 37.8281C230.066 37.3177 229.899 36.8698 229.566 36.4844C229.232 36.0938 228.771 35.7917 228.183 35.5781C227.594 35.3646 226.925 35.2604 226.175 35.2656ZM228.175 44.4531V41.1484C227.555 41.3099 226.889 41.3906 226.175 41.3906C225.456 41.3906 224.8 41.3125 224.206 41.1562V44.4531H228.175ZM234.744 46.0938C234.561 46.0938 234.392 46.0495 234.236 45.9609C234.085 45.8672 233.963 45.7422 233.869 45.5859C233.78 45.4297 233.739 45.2604 233.744 45.0781C233.739 44.901 233.78 44.737 233.869 44.5859C233.963 44.4297 234.085 44.3073 234.236 44.2188C234.392 44.125 234.561 44.0781 234.744 44.0781C234.921 44.0781 235.085 44.125 235.236 44.2188C235.392 44.3073 235.515 44.4297 235.603 44.5859C235.697 44.737 235.744 44.901 235.744 45.0781C235.744 45.2604 235.697 45.4297 235.603 45.5859C235.515 45.7422 235.392 45.8672 235.236 45.9609C235.085 46.0495 234.921 46.0938 234.744 46.0938Z" fill="#252B37"/>
<path d="M208.866 74.5C208.481 75.1667 207.519 75.1667 207.134 74.5L198.474 59.5C198.089 58.8333 198.57 58 199.34 58L216.66 58C217.43 58 217.911 58.8333 217.526 59.5L208.866 74.5Z" fill="#E9EAEB"/>
<rect x="0.5" y="120.5" width="55" height="55" rx="27.5" fill="white" stroke="#F5F5F5"/>
<rect x="60.5" y="120.5" width="55" height="55" rx="27.5" fill="white" stroke="#F5F5F5"/>
<rect x="120.5" y="120.5" width="55" height="55" rx="27.5" fill="white" stroke="#F5F5F5"/>
<rect x="180.5" y="120.5" width="55" height="55" rx="27.5" fill="white" stroke="#F5F5F5"/>
<rect x="240.5" y="120.5" width="55" height="55" rx="27.5" fill="white" stroke="#F5F5F5"/>
<rect x="0.5" y="180.5" width="55" height="55" rx="27.5" fill="white" stroke="#F5F5F5"/>
<rect x="60" y="180" width="56" height="56" rx="28" fill="#0EBC7F"/>
<path d="M77.1008 208.769L84.466 216.43C84.8608 216.841 85.5184 216.839 85.9112 216.426L102.499 198.999" stroke="white" stroke-width="5" stroke-linecap="round"/>
<rect x="120.5" y="180.5" width="55" height="55" rx="27.5" fill="white" stroke="#F5F5F5"/>
<rect x="180.5" y="180.5" width="55" height="55" rx="27.5" fill="white" stroke="#F5F5F5"/>
<rect x="240.5" y="180.5" width="55" height="55" rx="27.5" fill="white" stroke="#F5F5F5"/>
<rect x="43" y="140" width="90" height="40" rx="16" fill="#E7F8F2"/>
<path d="M70.3125 159.031H72.5625V160.062H70.3125V167.266H69.0938V153.375H70.3125V159.031ZM66.7188 154.875C66.7188 156.943 66.2005 158.818 65.1641 160.5C64.1276 162.177 62.5208 163.552 60.3438 164.625L59.6562 163.656C61.4427 162.766 62.8255 161.667 63.8047 160.359C64.7839 159.047 65.3438 157.562 65.4844 155.906H60.2969V154.875H66.7188ZM84.2094 158.281H74.725V153.656H75.9438V157.266H84.2094V158.281ZM85.6625 160.922H72.9906V159.906H85.6625V160.922ZM79.3188 162.172C80.3135 162.172 81.1677 162.271 81.8813 162.469C82.5948 162.661 83.1417 162.948 83.5219 163.328C83.9021 163.703 84.0948 164.156 84.1 164.688C84.0948 165.219 83.9021 165.672 83.5219 166.047C83.1417 166.427 82.5948 166.714 81.8813 166.906C81.1677 167.104 80.3135 167.203 79.3188 167.203C78.3188 167.203 77.4594 167.104 76.7406 166.906C76.0219 166.714 75.4724 166.427 75.0922 166.047C74.712 165.672 74.5219 165.219 74.5219 164.688C74.5219 164.156 74.712 163.703 75.0922 163.328C75.4724 162.948 76.0219 162.661 76.7406 162.469C77.4594 162.271 78.3188 162.172 79.3188 162.172ZM79.3188 163.141C78.1938 163.151 77.3188 163.289 76.6938 163.555C76.074 163.82 75.7667 164.198 75.7719 164.688C75.7667 165.01 75.9047 165.289 76.1859 165.523C76.4672 165.758 76.8734 165.938 77.4047 166.062C77.9411 166.188 78.5792 166.25 79.3188 166.25C80.0479 166.25 80.6781 166.188 81.2094 166.062C81.7458 165.938 82.1547 165.758 82.4359 165.523C82.7224 165.289 82.8656 165.01 82.8656 164.688C82.8656 164.198 82.5531 163.82 81.9281 163.555C81.3031 163.289 80.4333 163.151 79.3188 163.141ZM93.3563 156.781H86.3875V155.781H89.2781V153.797H90.4969V155.781H93.3563V156.781ZM89.8719 157.719C90.45 157.719 90.9656 157.854 91.4188 158.125C91.8771 158.391 92.2339 158.763 92.4891 159.242C92.7495 159.721 92.8823 160.266 92.8875 160.875C92.8823 161.49 92.7495 162.039 92.4891 162.523C92.2339 163.003 91.8771 163.38 91.4188 163.656C90.9656 163.927 90.45 164.062 89.8719 164.062C89.299 164.062 88.7859 163.927 88.3328 163.656C87.8797 163.38 87.5255 163 87.2703 162.516C87.0151 162.031 86.8875 161.484 86.8875 160.875C86.8875 160.271 87.0151 159.729 87.2703 159.25C87.5255 158.766 87.8797 158.391 88.3328 158.125C88.7859 157.854 89.299 157.719 89.8719 157.719ZM89.8719 158.75C89.5125 158.755 89.187 158.852 88.8953 159.039C88.6089 159.221 88.3849 159.474 88.2234 159.797C88.062 160.115 87.9813 160.474 87.9813 160.875C87.9813 161.281 88.062 161.646 88.2234 161.969C88.3901 162.292 88.6167 162.544 88.9031 162.727C89.1896 162.904 89.5125 162.99 89.8719 162.984C90.2365 162.99 90.5646 162.904 90.8563 162.727C91.1479 162.544 91.3771 162.292 91.5438 161.969C91.7104 161.646 91.7938 161.281 91.7938 160.875C91.7938 160.474 91.7104 160.115 91.5438 159.797C91.3771 159.474 91.1479 159.221 90.8563 159.039C90.5646 158.852 90.2365 158.755 89.8719 158.75ZM98.2469 167.266H97.075V160.25H95.2313V166.578H94.075V153.719H95.2313V159.234H97.075V153.375H98.2469V167.266ZM112.566 165.484H99.8469V164.453H103.003V160.703C102.399 160.391 101.93 159.99 101.597 159.5C101.264 159.005 101.097 158.448 101.097 157.828C101.097 157.12 101.313 156.497 101.745 155.961C102.178 155.419 102.777 155 103.542 154.703C104.313 154.406 105.191 154.255 106.175 154.25C107.159 154.255 108.034 154.406 108.8 154.703C109.571 155 110.172 155.419 110.605 155.961C111.037 156.497 111.253 157.12 111.253 157.828C111.253 158.438 111.092 158.987 110.769 159.477C110.446 159.961 109.993 160.359 109.409 160.672V164.453H112.566V165.484ZM106.175 155.266C105.42 155.26 104.748 155.365 104.159 155.578C103.571 155.792 103.11 156.094 102.777 156.484C102.448 156.87 102.284 157.318 102.284 157.828C102.284 158.339 102.448 158.792 102.777 159.188C103.11 159.578 103.571 159.883 104.159 160.102C104.748 160.315 105.42 160.422 106.175 160.422C106.925 160.422 107.594 160.312 108.183 160.094C108.771 159.875 109.232 159.57 109.566 159.18C109.899 158.789 110.066 158.339 110.066 157.828C110.066 157.318 109.899 156.87 109.566 156.484C109.232 156.094 108.771 155.792 108.183 155.578C107.594 155.365 106.925 155.26 106.175 155.266ZM108.175 164.453V161.148C107.555 161.31 106.889 161.391 106.175 161.391C105.456 161.391 104.8 161.312 104.206 161.156V164.453H108.175ZM114.744 166.094C114.561 166.094 114.392 166.049 114.236 165.961C114.085 165.867 113.963 165.742 113.869 165.586C113.78 165.43 113.739 165.26 113.744 165.078C113.739 164.901 113.78 164.737 113.869 164.586C113.963 164.43 114.085 164.307 114.236 164.219C114.392 164.125 114.561 164.078 114.744 164.078C114.921 164.078 115.085 164.125 115.236 164.219C115.392 164.307 115.515 164.43 115.603 164.586C115.697 164.737 115.744 164.901 115.744 165.078C115.744 165.26 115.697 165.43 115.603 165.586C115.515 165.742 115.392 165.867 115.236 165.961C115.085 166.049 114.921 166.094 114.744 166.094Z" fill="#252B37"/>
<path d="M88.866 194.5C88.4811 195.167 87.5189 195.167 87.134 194.5L78.4737 179.5C78.0888 178.833 78.5699 178 79.3397 178L96.6603 178C97.4301 178 97.9112 178.833 97.5263 179.5L88.866 194.5Z" fill="#E7F8F2"/>
</svg>
