<svg width="254" height="159" viewBox="0 0 254 159" fill="none" xmlns="http://www.w3.org/2000/svg">
<line x1="74" y1="132" x2="180" y2="132" stroke="#0EBC7F" stroke-width="2" stroke-linecap="round" stroke-dasharray="8 8"/>
<path d="M32.5 76.8906C33.1875 76.8958 33.8021 77.0286 34.3438 77.2891C34.8906 77.5495 35.3177 77.9141 35.625 78.3828C35.9375 78.8464 36.0938 79.375 36.0938 79.9688C36.0938 80.5625 35.9375 81.0938 35.625 81.5625C35.3177 82.026 34.8906 82.388 34.3438 82.6484C33.8021 82.9036 33.1875 83.0312 32.5 83.0312C31.8021 83.0312 31.1797 82.9036 30.6328 82.6484C30.0859 82.388 29.6589 82.026 29.3516 81.5625C29.0443 81.0938 28.8906 80.5625 28.8906 79.9688C28.8906 79.375 29.0443 78.8464 29.3516 78.3828C29.6589 77.9141 30.0859 77.5495 30.6328 77.2891C31.1797 77.0286 31.8021 76.8958 32.5 76.8906ZM32.5 77.9219C32.0417 77.9219 31.6276 78.0104 31.2578 78.1875C30.8932 78.3594 30.6068 78.6016 30.3984 78.9141C30.1901 79.2214 30.0885 79.5729 30.0938 79.9688C30.0885 80.3698 30.1901 80.7266 30.3984 81.0391C30.6068 81.3516 30.8932 81.5964 31.2578 81.7734C31.6276 81.9453 32.0417 82.0312 32.5 82.0312C32.9531 82.0312 33.362 81.9453 33.7266 81.7734C34.0964 81.5964 34.3854 81.3516 34.5938 81.0391C34.8021 80.7266 34.9062 80.3698 34.9062 79.9688C34.9062 79.5729 34.8021 79.2214 34.5938 78.9141C34.3854 78.6016 34.0964 78.3594 33.7266 78.1875C33.362 78.0104 32.9531 77.9219 32.5 77.9219ZM40.0312 83.5156H38.8125V76.375H40.0312V83.5156ZM40.0312 87.5312H32.2344V89.0938H40.5312V90.0781H31.0312V86.6094H38.8125V85.1719H31V84.1875H40.0312V87.5312ZM53.5063 84.6562H52.2719V81.0156H49.475V80H52.2719V76.375H53.5063V84.6562ZM48.8969 85.0938C49.8604 85.0938 50.6911 85.1953 51.3891 85.3984C52.087 85.6016 52.6208 85.8958 52.9906 86.2812C53.3656 86.6667 53.5531 87.1302 53.5531 87.6719C53.5531 88.2135 53.3656 88.6771 52.9906 89.0625C52.6208 89.4531 52.087 89.75 51.3891 89.9531C50.6911 90.1562 49.8604 90.2604 48.8969 90.2656C47.9333 90.2604 47.1026 90.1562 46.4047 89.9531C45.7068 89.75 45.1703 89.4531 44.7953 89.0625C44.4255 88.6771 44.2406 88.2135 44.2406 87.6719C44.2406 87.1302 44.4255 86.6667 44.7953 86.2812C45.1703 85.8958 45.7068 85.6016 46.4047 85.3984C47.1026 85.1953 47.9333 85.0938 48.8969 85.0938ZM48.8969 86.0469C48.1938 86.0469 47.5818 86.112 47.0609 86.2422C46.5401 86.3724 46.1417 86.5599 45.8656 86.8047C45.5896 87.0495 45.4542 87.3385 45.4594 87.6719C45.4542 88 45.5896 88.2865 45.8656 88.5312C46.1417 88.7708 46.5401 88.9557 47.0609 89.0859C47.5818 89.2161 48.1938 89.2812 48.8969 89.2812C49.6 89.2812 50.2094 89.2161 50.725 89.0859C51.2458 88.9557 51.6443 88.7708 51.9203 88.5312C52.1964 88.2865 52.3344 88 52.3344 87.6719C52.3344 87.3385 52.1964 87.0495 51.9203 86.8047C51.6443 86.5599 51.2458 86.3724 50.725 86.2422C50.2094 86.112 49.6 86.0469 48.8969 86.0469ZM46.8188 78.9219C46.8188 79.5208 46.962 80.1016 47.2484 80.6641C47.5349 81.2214 47.9359 81.7188 48.4516 82.1562C48.9724 82.5885 49.5688 82.9219 50.2406 83.1562L49.6 84.1406C48.824 83.8594 48.1417 83.4427 47.5531 82.8906C46.9698 82.3385 46.5297 81.7005 46.2328 80.9766C45.9307 81.7891 45.4698 82.5078 44.85 83.1328C44.2354 83.7526 43.5167 84.2188 42.6938 84.5312L42.0531 83.5469C42.7354 83.2969 43.3448 82.9375 43.8813 82.4688C44.4177 81.9948 44.8344 81.4505 45.1313 80.8359C45.4333 80.2214 45.5844 79.5885 45.5844 78.9375V78.4219H42.4438V77.3906H49.9281V78.4219H46.8188V78.9219Z" fill="#0EBC7F"/>
<rect x="27" y="105" width="5" height="11" rx="2.5" fill="#E9EAEB"/>
<rect x="52" y="105" width="5" height="11" rx="2.5" fill="#E9EAEB"/>
<rect x="19" y="110" width="46" height="46" rx="8" fill="#E9EAEB"/>
<path d="M19 118C19 113.582 22.5817 110 27 110H57C61.4183 110 65 113.582 65 118V124H19V118Z" fill="#0EBC7F"/>
<path d="M201.266 79.0156C201.266 79.6146 201.406 80.1875 201.688 80.7344C201.974 81.276 202.372 81.7552 202.883 82.1719C203.398 82.5833 203.995 82.901 204.672 83.125L204.094 84.0938C203.302 83.8333 202.609 83.4401 202.016 82.9141C201.427 82.388 200.982 81.7708 200.68 81.0625C200.383 81.8594 199.927 82.5573 199.312 83.1562C198.698 83.75 197.974 84.1979 197.141 84.5L196.516 83.5156C197.203 83.2812 197.815 82.9375 198.352 82.4844C198.888 82.0312 199.305 81.5052 199.602 80.9062C199.904 80.3021 200.057 79.6719 200.062 79.0156V78.4219H196.891V77.4062H204.391V78.4219H201.266V79.0156ZM207.422 79.9219H209.516V80.9531H207.422V84.7656H206.203V76.375H207.422V79.9219ZM202.969 85.1406C203.917 85.1406 204.734 85.2422 205.422 85.4453C206.109 85.6432 206.635 85.9323 207 86.3125C207.365 86.6927 207.547 87.1458 207.547 87.6719C207.547 88.2083 207.365 88.6693 207 89.0547C206.635 89.4401 206.109 89.7318 205.422 89.9297C204.734 90.1328 203.917 90.2344 202.969 90.2344C202.021 90.2344 201.201 90.1328 200.508 89.9297C199.815 89.7318 199.284 89.4401 198.914 89.0547C198.544 88.6693 198.359 88.2083 198.359 87.6719C198.359 87.1458 198.544 86.6927 198.914 86.3125C199.284 85.9323 199.815 85.6432 200.508 85.4453C201.201 85.2422 202.021 85.1406 202.969 85.1406ZM202.969 86.125C202.276 86.125 201.674 86.1875 201.164 86.3125C200.654 86.4323 200.263 86.6094 199.992 86.8438C199.721 87.0781 199.589 87.3542 199.594 87.6719C199.589 88 199.721 88.2839 199.992 88.5234C200.263 88.7578 200.651 88.9375 201.156 89.0625C201.667 89.1875 202.271 89.25 202.969 89.25C203.672 89.25 204.276 89.1875 204.781 89.0625C205.292 88.9375 205.682 88.7578 205.953 88.5234C206.224 88.2839 206.359 88 206.359 87.6719C206.359 87.349 206.224 87.0729 205.953 86.8438C205.682 86.6094 205.292 86.4323 204.781 86.3125C204.271 86.1875 203.667 86.125 202.969 86.125ZM222.709 88.4531H209.991V87.4375H215.678V84.0312H216.881V87.4375H222.709V88.4531ZM216.913 78.3906C216.913 79.1302 217.168 79.8411 217.678 80.5234C218.194 81.2057 218.85 81.7839 219.647 82.2578C220.449 82.7266 221.261 83.0312 222.084 83.1719L221.538 84.1875C220.819 84.0417 220.113 83.7891 219.42 83.4297C218.728 83.0703 218.103 82.6224 217.545 82.0859C216.993 81.5495 216.571 80.9583 216.28 80.3125C215.988 80.9583 215.566 81.5495 215.014 82.0859C214.462 82.6224 213.84 83.0703 213.147 83.4297C212.459 83.7891 211.756 84.0417 211.038 84.1875L210.491 83.1719C211.314 83.0312 212.121 82.7266 212.913 82.2578C213.709 81.7839 214.36 81.2083 214.866 80.5312C215.376 79.849 215.631 79.1354 215.631 78.3906V77.3281H216.913V78.3906Z" fill="#0EBC7F"/>
<path d="M210.092 105C221.74 105 231.184 114.317 231.184 125.81C231.183 140.604 215.463 152.662 211.166 155.682C210.514 156.139 209.676 156.129 209.034 155.657C204.761 152.517 189 139.976 189 125.81C189 114.317 198.443 105 210.092 105ZM209.296 117.24C204.681 117.24 200.939 121.076 200.938 125.809C200.938 130.541 204.681 134.377 209.296 134.377C213.911 134.377 217.652 130.541 217.652 125.809C217.652 121.077 213.911 117.24 209.296 117.24Z" fill="#0EBC7F"/>
<rect width="254" height="40" rx="16" fill="#E7F8F2"/>
<path d="M28.1863 14.9375L26.5958 18.9717L22.5616 20.5635L26.5958 22.154L28.1863 26.1882L29.7781 22.154L33.8123 20.5635L29.7781 18.9717L28.1863 14.9375Z" fill="#39C896"/>
<path d="M28.1863 14.3747C27.9568 14.3747 27.7475 14.5164 27.6638 14.7311L26.1624 18.5385L22.355 20.0399C22.2503 20.0815 22.1604 20.1536 22.0971 20.2469C22.0338 20.3402 22 20.4503 22 20.563C22 20.6758 22.0338 20.7859 22.0971 20.8792C22.1604 20.9725 22.2503 21.0446 22.355 21.0862L26.1624 22.5876L27.6638 26.395C27.7054 26.4997 27.7775 26.5896 27.8708 26.6529C27.9641 26.7162 28.0742 26.75 28.187 26.75C28.2997 26.75 28.4098 26.7162 28.5031 26.6529C28.5964 26.5896 28.6685 26.4997 28.7101 26.395L30.2115 22.5876L34.0189 21.0862C34.1236 21.0446 34.2135 20.9725 34.2768 20.8792C34.3401 20.7859 34.3739 20.6758 34.3739 20.563C34.3739 20.4503 34.3401 20.3402 34.2768 20.2469C34.2135 20.1536 34.1236 20.0815 34.0189 20.0399L30.2115 18.5385L28.7101 14.7311C28.6682 14.6263 28.596 14.5364 28.5026 14.4729C28.4093 14.4094 28.2992 14.3752 28.1863 14.3747ZM28.1863 16.4714L29.2542 19.1771C29.2828 19.2488 29.3256 19.3139 29.3802 19.3685C29.4347 19.423 29.4998 19.4659 29.5715 19.4944L32.2786 20.561L29.5715 21.6303C29.5 21.6587 29.4349 21.7013 29.3804 21.7557C29.3258 21.81 29.2829 21.8748 29.2542 21.9463L28.1876 24.6547L27.1183 21.9463C27.0898 21.875 27.0471 21.8102 26.9928 21.7559C26.9385 21.7016 26.8737 21.6589 26.8024 21.6303L24.094 20.5624L26.8024 19.4944C26.8738 19.4657 26.9387 19.4228 26.993 19.3683C27.0473 19.3137 27.0899 19.2487 27.1183 19.1771L28.1863 16.4714ZM33.2493 13.25L32.5337 14.7838L31 15.4993L32.5337 16.2163L33.2493 17.75L33.9649 16.2163L35.5 15.5007L33.9662 14.7851L33.2493 13.25Z" fill="#39C896"/>
<path d="M55.5781 21.0312H49.1562V14.6406H55.5781V21.0312ZM50.3594 20.0469H54.3906V15.6406H50.3594V20.0469ZM59.4219 17.6094H61.5156V18.6406H59.4219V23.5625H58.2031V13.375H59.4219V17.6094ZM60.0625 26.9688H50.7344V22.5938H51.9375V25.9375H60.0625V26.9688ZM72.85 16.2812H74.9438V17.3125H72.85V20.3906H71.6313V13.375H72.85V16.2812ZM63.8969 18.6562C64.9542 18.6615 65.9958 18.6198 67.0219 18.5312C68.0479 18.4375 69.0948 18.2812 70.1625 18.0625L70.3188 19.0938C69.1938 19.3229 68.1026 19.4844 67.0453 19.5781C65.9932 19.6719 64.9021 19.7188 63.7719 19.7188H62.6625V14H63.8969V18.6562ZM72.85 24.4531H65.2406V26.0781H73.3656V27.0781H64.0219V23.4844H71.6313V22.0469H63.9906V21.0625H72.85V24.4531ZM88.1219 22.375H82.325V27.2656H81.1219V22.375H75.4031V21.3438H88.1219V22.375ZM81.7313 13.9375C82.7 13.9375 83.5542 14.0625 84.2938 14.3125C85.0333 14.5573 85.6063 14.9115 86.0125 15.375C86.4188 15.8385 86.6219 16.3802 86.6219 17C86.6219 17.6042 86.4188 18.1354 86.0125 18.5938C85.6063 19.0469 85.0333 19.3984 84.2938 19.6484C83.5542 19.8932 82.7 20.0156 81.7313 20.0156C80.7625 20.0156 79.9083 19.8932 79.1688 19.6484C78.4292 19.3984 77.8563 19.0469 77.45 18.5938C77.0438 18.1354 76.8406 17.6042 76.8406 17C76.8406 16.3802 77.0438 15.8385 77.45 15.375C77.8563 14.9115 78.4292 14.5573 79.1688 14.3125C79.9083 14.0625 80.7625 13.9375 81.7313 13.9375ZM81.7313 14.9375C81.0125 14.9375 80.3771 15.0234 79.825 15.1953C79.2781 15.362 78.8536 15.6016 78.5516 15.9141C78.2495 16.2266 78.101 16.5885 78.1063 17C78.101 17.4062 78.2495 17.763 78.5516 18.0703C78.8536 18.3776 79.2781 18.6146 79.825 18.7812C80.3771 18.9479 81.0125 19.0312 81.7313 19.0312C82.4448 19.0312 83.0776 18.9479 83.6297 18.7812C84.1818 18.6146 84.6089 18.3776 84.9109 18.0703C85.2182 17.763 85.3719 17.4062 85.3719 17C85.3719 16.5885 85.2182 16.2266 84.9109 15.9141C84.6089 15.6016 84.1818 15.362 83.6297 15.1953C83.0776 15.0234 82.4448 14.9375 81.7313 14.9375ZM100.362 21.6562H99.1281V18.0156H96.3312V17H99.1281V13.375H100.362V21.6562ZM95.7531 22.0938C96.7167 22.0938 97.5474 22.1953 98.2453 22.3984C98.9432 22.6016 99.4771 22.8958 99.8469 23.2812C100.222 23.6667 100.409 24.1302 100.409 24.6719C100.409 25.2135 100.222 25.6771 99.8469 26.0625C99.4771 26.4531 98.9432 26.75 98.2453 26.9531C97.5474 27.1562 96.7167 27.2604 95.7531 27.2656C94.7896 27.2604 93.9589 27.1562 93.2609 26.9531C92.563 26.75 92.0266 26.4531 91.6516 26.0625C91.2818 25.6771 91.0969 25.2135 91.0969 24.6719C91.0969 24.1302 91.2818 23.6667 91.6516 23.2812C92.0266 22.8958 92.563 22.6016 93.2609 22.3984C93.9589 22.1953 94.7896 22.0938 95.7531 22.0938ZM95.7531 23.0469C95.05 23.0469 94.438 23.112 93.9172 23.2422C93.3964 23.3724 92.9979 23.5599 92.7219 23.8047C92.4458 24.0495 92.3104 24.3385 92.3156 24.6719C92.3104 25 92.4458 25.2865 92.7219 25.5312C92.9979 25.7708 93.3964 25.9557 93.9172 26.0859C94.438 26.2161 95.05 26.2812 95.7531 26.2812C96.4562 26.2812 97.0656 26.2161 97.5812 26.0859C98.1021 25.9557 98.5005 25.7708 98.7766 25.5312C99.0526 25.2865 99.1906 25 99.1906 24.6719C99.1906 24.3385 99.0526 24.0495 98.7766 23.8047C98.5005 23.5599 98.1021 23.3724 97.5812 23.2422C97.0656 23.112 96.4562 23.0469 95.7531 23.0469ZM93.675 15.9219C93.675 16.5208 93.8182 17.1016 94.1047 17.6641C94.3911 18.2214 94.7922 18.7188 95.3078 19.1562C95.8286 19.5885 96.425 19.9219 97.0969 20.1562L96.4562 21.1406C95.6802 20.8594 94.9979 20.4427 94.4094 19.8906C93.826 19.3385 93.3859 18.7005 93.0891 17.9766C92.787 18.7891 92.326 19.5078 91.7062 20.1328C91.0917 20.7526 90.3729 21.2188 89.55 21.5312L88.9094 20.5469C89.5917 20.2969 90.201 19.9375 90.7375 19.4688C91.274 18.9948 91.6906 18.4505 91.9875 17.8359C92.2896 17.2214 92.4406 16.5885 92.4406 15.9375V15.4219H89.3V14.3906H96.7844V15.4219H93.675V15.9219ZM118.547 22.8125H112.812V27.2969H111.609V22.8125H105.891V21.7812H118.547V22.8125ZM112.828 16.125C112.828 16.6823 113.06 17.2161 113.523 17.7266C113.987 18.2318 114.596 18.6615 115.352 19.0156C116.107 19.3698 116.901 19.6042 117.734 19.7188L117.281 20.7031C116.562 20.5938 115.87 20.4036 115.203 20.1328C114.542 19.862 113.951 19.526 113.43 19.125C112.914 18.724 112.513 18.276 112.227 17.7812C111.94 18.2812 111.534 18.7318 111.008 19.1328C110.487 19.5339 109.893 19.8698 109.227 20.1406C108.56 20.4062 107.865 20.5938 107.141 20.7031L106.688 19.7188C107.521 19.6042 108.315 19.3724 109.07 19.0234C109.826 18.6693 110.438 18.2396 110.906 17.7344C111.375 17.224 111.609 16.6875 111.609 16.125V16.1094H107.125V15.1094H111.609V13.375H112.812V15.1094H117.328V16.1094H112.828V16.125ZM124.053 16.7031C124.053 17.3073 124.202 17.8854 124.498 18.4375C124.801 18.9844 125.217 19.4635 125.748 19.875C126.285 20.2865 126.897 20.599 127.584 20.8125L126.975 21.7969C126.168 21.5365 125.459 21.1406 124.85 20.6094C124.246 20.0781 123.787 19.4583 123.475 18.75C123.173 19.5104 122.717 20.1771 122.108 20.75C121.504 21.3177 120.793 21.7448 119.975 22.0312L119.366 21.0781C120.043 20.849 120.644 20.5156 121.17 20.0781C121.702 19.6354 122.113 19.1224 122.405 18.5391C122.702 17.9557 122.85 17.3438 122.85 16.7031V16.25H119.709V15.25H122.85V13.4688H124.084V15.25H127.194V16.25H124.053V16.7031ZM130.834 23.7656H129.6V18.6875H126.709V17.6719H129.6V13.3906H130.834V23.7656ZM131.225 26.9688H121.912V22.8281H123.147V25.9375H131.225V26.9688ZM140.3 13.8906C140.988 13.8958 141.602 14.0286 142.144 14.2891C142.691 14.5495 143.118 14.9141 143.425 15.3828C143.738 15.8464 143.894 16.375 143.894 16.9688C143.894 17.5625 143.738 18.0938 143.425 18.5625C143.118 19.026 142.691 19.388 142.144 19.6484C141.602 19.9036 140.988 20.0312 140.3 20.0312C139.602 20.0312 138.98 19.9036 138.433 19.6484C137.886 19.388 137.459 19.026 137.152 18.5625C136.844 18.0938 136.691 17.5625 136.691 16.9688C136.691 16.375 136.844 15.8464 137.152 15.3828C137.459 14.9141 137.886 14.5495 138.433 14.2891C138.98 14.0286 139.602 13.8958 140.3 13.8906ZM140.3 14.9219C139.842 14.9219 139.428 15.0104 139.058 15.1875C138.693 15.3594 138.407 15.6016 138.198 15.9141C137.99 16.2214 137.889 16.5729 137.894 16.9688C137.889 17.3698 137.99 17.7266 138.198 18.0391C138.407 18.3516 138.693 18.5964 139.058 18.7734C139.428 18.9453 139.842 19.0312 140.3 19.0312C140.753 19.0312 141.162 18.9453 141.527 18.7734C141.896 18.5964 142.185 18.3516 142.394 18.0391C142.602 17.7266 142.706 17.3698 142.706 16.9688C142.706 16.5729 142.602 16.2214 142.394 15.9141C142.185 15.6016 141.896 15.3594 141.527 15.1875C141.162 15.0104 140.753 14.9219 140.3 14.9219ZM147.831 20.5156H146.613V13.375H147.831V20.5156ZM147.831 24.5312H140.034V26.0938H148.331V27.0781H138.831V23.6094H146.613V22.1719H138.8V21.1875H147.831V24.5312ZM161.306 21.6562H160.072V18.0156H157.275V17H160.072V13.375H161.306V21.6562ZM156.697 22.0938C157.66 22.0938 158.491 22.1953 159.189 22.3984C159.887 22.6016 160.421 22.8958 160.791 23.2812C161.166 23.6667 161.353 24.1302 161.353 24.6719C161.353 25.2135 161.166 25.6771 160.791 26.0625C160.421 26.4531 159.887 26.75 159.189 26.9531C158.491 27.1562 157.66 27.2604 156.697 27.2656C155.733 27.2604 154.903 27.1562 154.205 26.9531C153.507 26.75 152.97 26.4531 152.595 26.0625C152.226 25.6771 152.041 25.2135 152.041 24.6719C152.041 24.1302 152.226 23.6667 152.595 23.2812C152.97 22.8958 153.507 22.6016 154.205 22.3984C154.903 22.1953 155.733 22.0938 156.697 22.0938ZM156.697 23.0469C155.994 23.0469 155.382 23.112 154.861 23.2422C154.34 23.3724 153.942 23.5599 153.666 23.8047C153.39 24.0495 153.254 24.3385 153.259 24.6719C153.254 25 153.39 25.2865 153.666 25.5312C153.942 25.7708 154.34 25.9557 154.861 26.0859C155.382 26.2161 155.994 26.2812 156.697 26.2812C157.4 26.2812 158.009 26.2161 158.525 26.0859C159.046 25.9557 159.444 25.7708 159.72 25.5312C159.996 25.2865 160.134 25 160.134 24.6719C160.134 24.3385 159.996 24.0495 159.72 23.8047C159.444 23.5599 159.046 23.3724 158.525 23.2422C158.009 23.112 157.4 23.0469 156.697 23.0469ZM154.619 15.9219C154.619 16.5208 154.762 17.1016 155.048 17.6641C155.335 18.2214 155.736 18.7188 156.252 19.1562C156.772 19.5885 157.369 19.9219 158.041 20.1562L157.4 21.1406C156.624 20.8594 155.942 20.4427 155.353 19.8906C154.77 19.3385 154.33 18.7005 154.033 17.9766C153.731 18.7891 153.27 19.5078 152.65 20.1328C152.035 20.7526 151.317 21.2188 150.494 21.5312L149.853 20.5469C150.535 20.2969 151.145 19.9375 151.681 19.4688C152.218 18.9948 152.634 18.4505 152.931 17.8359C153.233 17.2214 153.384 16.5885 153.384 15.9375V15.4219H150.244V14.3906H157.728V15.4219H154.619V15.9219ZM170.922 15.6406V15.8594C170.911 16.6875 170.88 17.513 170.828 18.3359C170.776 19.1536 170.672 20.0938 170.516 21.1562L169.281 21.0469C169.448 20.0156 169.557 19.0938 169.609 18.2812C169.661 17.4635 169.688 16.6771 169.688 15.9219H163.859V14.9219H170.922V15.6406ZM167.281 23.1094C168.995 23.0469 170.516 22.9375 171.844 22.7812L171.906 23.7031C170.693 23.8958 169.414 24.0286 168.07 24.1016C166.727 24.1693 165.333 24.2031 163.891 24.2031H163.234L163.078 23.1875C164.406 23.1771 165.406 23.1641 166.078 23.1484V18.8906H167.281V23.1094ZM173.938 19.1875H176.188V20.25H173.938V27.2656H172.719V13.375H173.938V19.1875ZM184.966 16.0156C184.966 16.6146 185.106 17.1875 185.387 17.7344C185.674 18.276 186.072 18.7552 186.583 19.1719C187.098 19.5833 187.695 19.901 188.372 20.125L187.794 21.0938C187.002 20.8333 186.309 20.4401 185.716 19.9141C185.127 19.388 184.682 18.7708 184.38 18.0625C184.083 18.8594 183.627 19.5573 183.012 20.1562C182.398 20.75 181.674 21.1979 180.841 21.5L180.216 20.5156C180.903 20.2812 181.515 19.9375 182.052 19.4844C182.588 19.0312 183.005 18.5052 183.302 17.9062C183.604 17.3021 183.757 16.6719 183.762 16.0156V15.4219H180.591V14.4062H188.091V15.4219H184.966V16.0156ZM191.122 16.9219H193.216V17.9531H191.122V21.7656H189.903V13.375H191.122V16.9219ZM186.669 22.1406C187.617 22.1406 188.434 22.2422 189.122 22.4453C189.809 22.6432 190.335 22.9323 190.7 23.3125C191.065 23.6927 191.247 24.1458 191.247 24.6719C191.247 25.2083 191.065 25.6693 190.7 26.0547C190.335 26.4401 189.809 26.7318 189.122 26.9297C188.434 27.1328 187.617 27.2344 186.669 27.2344C185.721 27.2344 184.901 27.1328 184.208 26.9297C183.515 26.7318 182.984 26.4401 182.614 26.0547C182.244 25.6693 182.059 25.2083 182.059 24.6719C182.059 24.1458 182.244 23.6927 182.614 23.3125C182.984 22.9323 183.515 22.6432 184.208 22.4453C184.901 22.2422 185.721 22.1406 186.669 22.1406ZM186.669 23.125C185.976 23.125 185.374 23.1875 184.864 23.3125C184.354 23.4323 183.963 23.6094 183.692 23.8438C183.421 24.0781 183.289 24.3542 183.294 24.6719C183.289 25 183.421 25.2839 183.692 25.5234C183.963 25.7578 184.351 25.9375 184.856 26.0625C185.367 26.1875 185.971 26.25 186.669 26.25C187.372 26.25 187.976 26.1875 188.481 26.0625C188.992 25.9375 189.382 25.7578 189.653 25.5234C189.924 25.2839 190.059 25 190.059 24.6719C190.059 24.349 189.924 24.0729 189.653 23.8438C189.382 23.6094 188.992 23.4323 188.481 23.3125C187.971 23.1875 187.367 23.125 186.669 23.125ZM206.409 25.4531H193.691V24.4375H199.378V21.0312H200.581V24.4375H206.409V25.4531ZM200.613 15.3906C200.613 16.1302 200.868 16.8411 201.378 17.5234C201.894 18.2057 202.55 18.7839 203.347 19.2578C204.149 19.7266 204.961 20.0312 205.784 20.1719L205.238 21.1875C204.519 21.0417 203.813 20.7891 203.12 20.4297C202.428 20.0703 201.803 19.6224 201.245 19.0859C200.693 18.5495 200.271 17.9583 199.98 17.3125C199.688 17.9583 199.266 18.5495 198.714 19.0859C198.162 19.6224 197.54 20.0703 196.847 20.4297C196.159 20.7891 195.456 21.0417 194.738 21.1875L194.191 20.1719C195.014 20.0312 195.821 19.7266 196.613 19.2578C197.409 18.7839 198.06 18.2083 198.566 17.5312C199.076 16.849 199.331 16.1354 199.331 15.3906V14.3281H200.613V15.3906ZM219.025 27.2656H217.837V13.375H219.025V27.2656ZM216.259 26.5625H215.087V22H212.869C212.624 22.6979 212.278 23.2396 211.83 23.625C211.382 24.0104 210.864 24.2031 210.275 24.2031C209.676 24.2031 209.15 24.0078 208.697 23.6172C208.249 23.2214 207.903 22.6589 207.658 21.9297C207.413 21.2005 207.291 20.349 207.291 19.375C207.291 18.401 207.413 17.5495 207.658 16.8203C207.903 16.0911 208.249 15.5312 208.697 15.1406C209.15 14.7448 209.676 14.5469 210.275 14.5469C210.864 14.5469 211.382 14.7396 211.83 15.125C212.278 15.5104 212.624 16.0521 212.869 16.75H215.087V13.6719H216.259V26.5625ZM210.275 15.7031C209.9 15.7031 209.572 15.8516 209.291 16.1484C209.015 16.4453 208.801 16.8698 208.65 17.4219C208.504 17.974 208.431 18.625 208.431 19.375C208.431 20.1198 208.504 20.7682 208.65 21.3203C208.801 21.8724 209.015 22.2969 209.291 22.5938C209.572 22.8906 209.9 23.0365 210.275 23.0312C210.645 23.0365 210.97 22.8906 211.252 22.5938C211.533 22.2969 211.749 21.8724 211.9 21.3203C212.056 20.7682 212.134 20.1198 212.134 19.375C212.134 18.6302 212.056 17.9818 211.9 17.4297C211.749 16.8724 211.533 16.4453 211.252 16.1484C210.976 15.8516 210.65 15.7031 210.275 15.7031ZM213.134 17.7656C213.228 18.2552 213.275 18.7917 213.275 19.375C213.275 19.9375 213.231 20.4688 213.142 20.9688H215.087V17.7656H213.134ZM233.266 25.4844H220.547V24.4531H223.703V20.7031C223.099 20.3906 222.63 19.9896 222.297 19.5C221.964 19.0052 221.797 18.4479 221.797 17.8281C221.797 17.1198 222.013 16.4974 222.445 15.9609C222.878 15.4193 223.477 15 224.242 14.7031C225.013 14.4062 225.891 14.2552 226.875 14.25C227.859 14.2552 228.734 14.4062 229.5 14.7031C230.271 15 230.872 15.4193 231.305 15.9609C231.737 16.4974 231.953 17.1198 231.953 17.8281C231.953 18.4375 231.792 18.987 231.469 19.4766C231.146 19.9609 230.693 20.3594 230.109 20.6719V24.4531H233.266V25.4844ZM226.875 15.2656C226.12 15.2604 225.448 15.3646 224.859 15.5781C224.271 15.7917 223.81 16.0938 223.477 16.4844C223.148 16.8698 222.984 17.3177 222.984 17.8281C222.984 18.3385 223.148 18.7917 223.477 19.1875C223.81 19.5781 224.271 19.8828 224.859 20.1016C225.448 20.3151 226.12 20.4219 226.875 20.4219C227.625 20.4219 228.294 20.3125 228.883 20.0938C229.471 19.875 229.932 19.5703 230.266 19.1797C230.599 18.7891 230.766 18.3385 230.766 17.8281C230.766 17.3177 230.599 16.8698 230.266 16.4844C229.932 16.0938 229.471 15.7917 228.883 15.5781C228.294 15.3646 227.625 15.2604 226.875 15.2656ZM228.875 24.4531V21.1484C228.255 21.3099 227.589 21.3906 226.875 21.3906C226.156 21.3906 225.5 21.3125 224.906 21.1562V24.4531H228.875ZM236.116 22.8125H234.803L234.694 14.6875H236.225L236.116 22.8125ZM235.459 26.0938C235.277 26.0938 235.108 26.0495 234.952 25.9609C234.801 25.8672 234.678 25.7422 234.584 25.5859C234.496 25.4297 234.454 25.2604 234.459 25.0781C234.454 24.901 234.496 24.737 234.584 24.5859C234.678 24.4297 234.801 24.3073 234.952 24.2188C235.108 24.125 235.277 24.0781 235.459 24.0781C235.636 24.0781 235.801 24.125 235.952 24.2188C236.108 24.3073 236.23 24.4297 236.319 24.5859C236.413 24.737 236.459 24.901 236.459 25.0781C236.459 25.2604 236.413 25.4297 236.319 25.5859C236.23 25.7422 236.108 25.8672 235.952 25.9609C235.801 26.0495 235.636 26.0938 235.459 26.0938Z" fill="#0EBC7F"/>
<path d="M127.866 54.5C127.481 55.1667 126.519 55.1667 126.134 54.5L117.474 39.5C117.089 38.8333 117.57 38 118.34 38H135.66C136.43 38 136.911 38.8333 136.526 39.5L127.866 54.5Z" fill="#E7F8F2"/>
</svg>
