<svg width="504" height="63" viewBox="0 0 504 63" fill="none" xmlns="http://www.w3.org/2000/svg">
<g clip-path="url(#paint0_angular_910_15986_clip_path)" data-figma-skip-parse="true"><g transform="matrix(0.011 0.0245 -0.0245 0.011 31.5 31.5)"><foreignObject x="-1599.65" y="-1599.65" width="3199.31" height="3199.31"><div xmlns="http://www.w3.org/1999/xhtml" style="background:conic-gradient(from 90deg,rgba(14, 188, 127, 1) 0deg,rgba(14, 188, 127, 0) 360deg);height:100%;width:100%;opacity:1"></div></foreignObject></g></g><path d="M62.9946 30.9106C62.9438 28.1496 60.6644 25.9527 57.9034 26.0035C55.1425 26.0543 52.9455 28.3337 52.9963 31.0946L57.9954 31.0026L62.9946 30.9106ZM46.9849 16.5846C48.9009 18.5731 52.0661 18.632 54.0547 16.716C56.0433 14.8 56.1021 11.6347 54.1861 9.64612L50.5855 13.1153L46.9849 16.5846ZM53.3539 8.81389C51.3653 6.89789 48.2 6.95672 46.284 8.94529C44.368 10.9339 44.4269 14.0991 46.4154 16.0151L49.8847 12.4145L53.3539 8.81389ZM31.9054 10.0037C34.6663 10.0545 36.9457 7.85755 36.9965 5.09659C37.0473 2.33564 34.8503 0.0562415 32.0894 0.00542116L31.9974 5.00457L31.9054 10.0037ZM30.9106 0.00542116C28.1496 0.0562415 25.9527 2.33564 26.0035 5.09659C26.0543 7.85755 28.3337 10.0545 31.0946 10.0037L31.0026 5.00457L30.9106 0.00542116ZM16.5846 16.0151C18.5731 14.0991 18.632 10.9339 16.716 8.9453C14.8 6.95673 11.6347 6.89789 9.64612 8.81389L13.1153 12.4145L16.5846 16.0151ZM8.81389 9.64612C6.89789 11.6347 6.95672 14.8 8.94529 16.716C10.9339 18.632 14.0991 18.5731 16.0151 16.5846L12.4145 13.1153L8.81389 9.64612ZM10.0037 31.0946C10.0545 28.3337 7.85755 26.0543 5.09659 26.0035C2.33564 25.9527 0.0562415 28.1497 0.00542116 30.9106L5.00457 31.0026L10.0037 31.0946ZM0.00542116 32.0894C0.0562415 34.8504 2.33564 37.0473 5.09659 36.9965C7.85755 36.9457 10.0545 34.6663 10.0037 31.9054L5.00457 31.9974L0.00542116 32.0894ZM16.0151 46.4154C14.0991 44.4269 10.9339 44.368 8.9453 46.284C6.95673 48.2 6.89789 51.3653 8.81389 53.3539L12.4145 49.8847L16.0151 46.4154ZM9.64612 54.1861C11.6347 56.1021 14.8 56.0433 16.716 54.0547C18.632 52.0661 18.5731 48.9009 16.5846 46.9849L13.1153 50.5855L9.64612 54.1861ZM31.0946 52.9963C28.3337 52.9455 26.0543 55.1425 26.0035 57.9034C25.9527 60.6644 28.1497 62.9438 30.9106 62.9946L31.0026 57.9954L31.0946 52.9963ZM32.0894 62.9946C34.8504 62.9438 37.0473 60.6644 36.9965 57.9034C36.9457 55.1425 34.6663 52.9455 31.9054 52.9963L31.9974 57.9954L32.0894 62.9946ZM46.4154 46.9849C44.4269 48.9009 44.368 52.0661 46.284 54.0547C48.2 56.0433 51.3653 56.1021 53.3539 54.1861L49.8847 50.5855L46.4154 46.9849ZM54.1861 53.3539C56.1021 51.3653 56.0433 48.2 54.0547 46.284C52.0661 44.368 48.9009 44.4269 46.9849 46.4154L50.5855 49.8847L54.1861 53.3539ZM52.9963 31.9054C52.9455 34.6663 55.1425 36.9457 57.9034 36.9965C60.6644 37.0473 62.9438 34.8503 62.9946 32.0894L57.9954 31.9974L52.9963 31.9054ZM58 31.5H63C63 31.3032 62.9982 31.1067 62.9946 30.9106L57.9954 31.0026L52.9963 31.0946C52.9988 31.2294 53 31.3645 53 31.5H58ZM50.5855 13.1153L54.1861 9.64612C53.9139 9.36358 53.6364 9.08611 53.3539 8.81389L49.8847 12.4145L46.4154 16.0151C46.6088 16.2014 46.7986 16.3912 46.9849 16.5846L50.5855 13.1153ZM31.9974 5.00457L32.0894 0.00542116C31.8933 0.0018115 31.6968 0 31.5 0V5V10C31.6355 10 31.7706 10.0012 31.9054 10.0037L31.9974 5.00457ZM31.5 5V0C31.3032 0 31.1067 0.0018115 30.9106 0.00542116L31.0026 5.00457L31.0946 10.0037C31.2294 10.0012 31.3645 10 31.5 10V5ZM13.1153 12.4145L9.64612 8.81389C9.36358 9.08612 9.08611 9.36358 8.81389 9.64612L12.4145 13.1153L16.0151 16.5846C16.2014 16.3912 16.3912 16.2014 16.5846 16.0151L13.1153 12.4145ZM5.00457 31.0026L0.00542116 30.9106C0.0018115 31.1067 0 31.3032 0 31.5H5H10C10 31.3645 10.0012 31.2294 10.0037 31.0946L5.00457 31.0026ZM5 31.5H0C0 31.6968 0.0018115 31.8933 0.00542116 32.0894L5.00457 31.9974L10.0037 31.9054C10.0012 31.7706 10 31.6355 10 31.5H5ZM12.4145 49.8847L8.81389 53.3539C9.08612 53.6364 9.36358 53.9139 9.64612 54.1861L13.1153 50.5855L16.5846 46.9849C16.3912 46.7986 16.2014 46.6088 16.0151 46.4154L12.4145 49.8847ZM31.0026 57.9954L30.9106 62.9946C31.1067 62.9982 31.3032 63 31.5 63V58V53C31.3645 53 31.2294 52.9988 31.0946 52.9963L31.0026 57.9954ZM31.5 58V63C31.6968 63 31.8933 62.9982 32.0894 62.9946L31.9974 57.9954L31.9054 52.9963C31.7706 52.9988 31.6355 53 31.5 53V58ZM49.8847 50.5855L53.3539 54.1861C53.6364 53.9139 53.9139 53.6364 54.1861 53.3539L50.5855 49.8847L46.9849 46.4154C46.7986 46.6088 46.6088 46.7986 46.4154 46.9849L49.8847 50.5855ZM57.9954 31.9974L62.9946 32.0894C62.9982 31.8933 63 31.6968 63 31.5H58H53C53 31.6355 52.9988 31.7706 52.9963 31.9054L57.9954 31.9974Z" data-figma-gradient-fill="{&#34;type&#34;:&#34;GRADIENT_ANGULAR&#34;,&#34;stops&#34;:[{&#34;color&#34;:{&#34;r&#34;:0.054901961237192154,&#34;g&#34;:0.73725491762161255,&#34;b&#34;:0.49803921580314636,&#34;a&#34;:1.0},&#34;position&#34;:0.0},{&#34;color&#34;:{&#34;r&#34;:0.054901961237192154,&#34;g&#34;:0.73725491762161255,&#34;b&#34;:0.49803921580314636,&#34;a&#34;:0.0},&#34;position&#34;:1.0}],&#34;stopsVar&#34;:[{&#34;color&#34;:{&#34;r&#34;:0.054901961237192154,&#34;g&#34;:0.73725491762161255,&#34;b&#34;:0.49803921580314636,&#34;a&#34;:1.0},&#34;position&#34;:0.0},{&#34;color&#34;:{&#34;r&#34;:0.054901961237192154,&#34;g&#34;:0.73725491762161255,&#34;b&#34;:0.49803921580314636,&#34;a&#34;:0.0},&#34;position&#34;:1.0}],&#34;transform&#34;:{&#34;m00&#34;:22.000001907348633,&#34;m01&#34;:-49.000003814697266,&#34;m02&#34;:45.000003814697266,&#34;m10&#34;:49.000003814697266,&#34;m11&#34;:22.000001907348633,&#34;m12&#34;:-4.0000009536743164},&#34;opacity&#34;:1.0,&#34;blendMode&#34;:&#34;NORMAL&#34;,&#34;visible&#34;:true}"/>
<g clip-path="url(#paint1_angular_910_15986_clip_path)" data-figma-skip-parse="true"><g transform="matrix(0.0251023 0.00954594 -0.00954594 0.0251023 94.5 31.5)"><foreignObject x="-1561.27" y="-1561.27" width="3122.55" height="3122.55"><div xmlns="http://www.w3.org/1999/xhtml" style="background:conic-gradient(from 90deg,rgba(14, 188, 127, 1) 0deg,rgba(14, 188, 127, 0) 360deg);height:100%;width:100%;opacity:1"></div></foreignObject></g></g><path d="M116.353 8.81324C114.365 6.89684 111.2 6.95514 109.283 8.94334C107.367 10.9315 107.425 14.0968 109.414 16.0132L112.883 12.4132L116.353 8.81324ZM94.9026 10.0037C97.6635 10.055 99.9433 7.85844 99.9946 5.09754C100.046 2.33658 97.8494 0.0567775 95.0884 0.0054675L94.9955 5.00464L94.9026 10.0037ZM93.9115 0.0054675C91.1505 0.0567875 88.9539 2.33658 89.0053 5.09754C89.0566 7.85844 91.3364 10.055 94.0973 10.0037L94.0044 5.00464L93.9115 0.0054675ZM79.5864 16.0132C81.5747 14.0968 81.6329 10.9315 79.7166 8.94334C77.8002 6.95514 74.6349 6.89684 72.6467 8.81324L76.1166 12.4132L79.5864 16.0132ZM71.8132 9.64674C69.8968 11.6349 69.9551 14.8002 71.9433 16.7166C73.9315 18.6329 77.0968 18.5747 79.0132 16.5864L75.4132 13.1166L71.8132 9.64674ZM73.0037 31.0973C73.055 28.3364 70.8584 26.0566 68.0975 26.0053C65.3366 25.954 63.0568 28.1505 63.0055 30.9115L68.0046 31.0044L73.0037 31.0973ZM63.0055 32.0884C63.0568 34.8494 65.3366 37.046 68.0975 36.9947C70.8584 36.9433 73.055 34.6635 73.0037 31.9026L68.0046 31.9955L63.0055 32.0884ZM79.0132 46.4135C77.0968 44.4253 73.9315 44.367 71.9433 46.2834C69.9551 48.1997 69.8968 51.365 71.8132 53.3532L75.4132 49.8834L79.0132 46.4135ZM72.6467 54.1868C74.6349 56.1031 77.8002 56.0448 79.7166 54.0566C81.6329 52.0684 81.5747 48.9031 79.5864 46.9867L76.1166 50.5868L72.6467 54.1868ZM94.0973 52.9962C91.3364 52.9449 89.0566 55.1415 89.0053 57.9024C88.954 60.6634 91.1505 62.9432 93.9115 62.9945L94.0044 57.9954L94.0973 52.9962ZM95.0884 62.9945C97.8494 62.9432 100.046 60.6634 99.9947 57.9024C99.9433 55.1415 97.6635 52.9449 94.9026 52.9962L94.9955 57.9954L95.0884 62.9945ZM109.414 46.9867C107.425 48.9031 107.367 52.0684 109.283 54.0566C111.2 56.0448 114.365 56.1031 116.353 54.1868L112.883 50.5868L109.414 46.9867ZM117.187 53.3532C119.103 51.365 119.045 48.1997 117.057 46.2834C115.068 44.367 111.903 44.4253 109.987 46.4135L113.587 49.8834L117.187 53.3532ZM115.996 31.9026C115.945 34.6635 118.142 36.9433 120.902 36.9946C123.663 37.046 125.943 34.8494 125.995 32.0884L120.995 31.9955L115.996 31.9026ZM125.995 30.9115C125.943 28.1505 123.663 25.9539 120.902 26.0053C118.142 26.0566 115.945 28.3364 115.996 31.0973L120.995 31.0044L125.995 30.9115ZM109.987 16.5864C111.903 18.5747 115.068 18.6329 117.057 16.7166C119.045 14.8002 119.103 11.6349 117.187 9.64674L113.587 13.1166L109.987 16.5864ZM113.238 12.7616L116.774 9.22614C116.635 9.08694 116.494 8.94934 116.353 8.81324L112.883 12.4132L109.414 16.0132C109.511 16.1067 109.607 16.2014 109.703 16.2972L113.238 12.7616ZM94.9955 5.00464L95.0884 0.0054675C94.6961 -0.0018225 94.3038 -0.0018225 93.9115 0.0054675L94.0044 5.00464L94.0973 10.0037C94.3657 9.99874 94.6342 9.99874 94.9026 10.0037L94.9955 5.00464ZM76.1166 12.4132L72.6467 8.81324C72.5055 8.94934 72.3653 9.08694 72.2261 9.22614L75.7616 12.7616L79.2972 16.2972C79.393 16.2014 79.4894 16.1067 79.5864 16.0132L76.1166 12.4132ZM75.7616 12.7616L72.2261 9.22614C72.0869 9.36534 71.9493 9.50554 71.8132 9.64674L75.4132 13.1166L79.0132 16.5864C79.1067 16.4894 79.2014 16.393 79.2972 16.2972L75.7616 12.7616ZM68.0046 31.0044L63.0055 30.9115C62.9982 31.3038 62.9982 31.6962 63.0055 32.0884L68.0046 31.9955L73.0037 31.9026C72.9987 31.6342 72.9987 31.3657 73.0037 31.0973L68.0046 31.0044ZM75.4132 49.8834L71.8132 53.3532C71.9493 53.4944 72.0869 53.6346 72.2261 53.7738L75.7616 50.2383L79.2972 46.7028C79.2014 46.607 79.1067 46.5105 79.0132 46.4135L75.4132 49.8834ZM75.7616 50.2383L72.2261 53.7738C72.3653 53.913 72.5055 54.0506 72.6467 54.1868L76.1166 50.5868L79.5864 46.9867C79.4894 46.8932 79.393 46.7985 79.2972 46.7028L75.7616 50.2383ZM94.0044 57.9954L93.9115 62.9945C94.3038 63.0018 94.6962 63.0018 95.0884 62.9945L94.9955 57.9954L94.9026 52.9962C94.6342 53.0012 94.3657 53.0012 94.0973 52.9962L94.0044 57.9954ZM112.883 50.5868L116.353 54.1868C116.494 54.0506 116.635 53.913 116.774 53.7738L113.238 50.2383L109.703 46.7028C109.607 46.7985 109.511 46.8932 109.414 46.9867L112.883 50.5868ZM113.238 50.2383L116.774 53.7738C116.913 53.6346 117.051 53.4944 117.187 53.3532L113.587 49.8834L109.987 46.4135C109.893 46.5105 109.799 46.607 109.703 46.7028L113.238 50.2383ZM120.995 31.9955L125.995 32.0884C126.002 31.6961 126.002 31.3038 125.995 30.9115L120.995 31.0044L115.996 31.0973C116.001 31.3657 116.001 31.6342 115.996 31.9026L120.995 31.9955ZM113.587 13.1166L117.187 9.64674C117.051 9.50554 116.913 9.36534 116.774 9.22614L113.238 12.7616L109.703 16.2972C109.799 16.393 109.893 16.4894 109.987 16.5864L113.587 13.1166Z" data-figma-gradient-fill="{&#34;type&#34;:&#34;GRADIENT_ANGULAR&#34;,&#34;stops&#34;:[{&#34;color&#34;:{&#34;r&#34;:0.054901961237192154,&#34;g&#34;:0.73725491762161255,&#34;b&#34;:0.49803921580314636,&#34;a&#34;:1.0},&#34;position&#34;:0.0},{&#34;color&#34;:{&#34;r&#34;:0.054901961237192154,&#34;g&#34;:0.73725491762161255,&#34;b&#34;:0.49803921580314636,&#34;a&#34;:0.0},&#34;position&#34;:1.0}],&#34;stopsVar&#34;:[{&#34;color&#34;:{&#34;r&#34;:0.054901961237192154,&#34;g&#34;:0.73725491762161255,&#34;b&#34;:0.49803921580314636,&#34;a&#34;:1.0},&#34;position&#34;:0.0},{&#34;color&#34;:{&#34;r&#34;:0.054901961237192154,&#34;g&#34;:0.73725491762161255,&#34;b&#34;:0.49803921580314636,&#34;a&#34;:0.0},&#34;position&#34;:1.0}],&#34;transform&#34;:{&#34;m00&#34;:50.204582214355469,&#34;m01&#34;:-19.091882705688477,&#34;m02&#34;:78.943649291992188,&#34;m10&#34;:19.091882705688477,&#34;m11&#34;:50.204582214355469,&#34;m12&#34;:-3.1482357978820801},&#34;opacity&#34;:1.0,&#34;blendMode&#34;:&#34;NORMAL&#34;,&#34;visible&#34;:true}"/>
<g clip-path="url(#paint2_angular_910_15986_clip_path)" data-figma-skip-parse="true"><g transform="matrix(0.0245 -0.011 0.011 0.0245 157.5 31.5)"><foreignObject x="-1599.65" y="-1599.65" width="3199.31" height="3199.31"><div xmlns="http://www.w3.org/1999/xhtml" style="background:conic-gradient(from 90deg,rgba(14, 188, 127, 1) 0deg,rgba(14, 188, 127, 0) 360deg);height:100%;width:100%;opacity:1"></div></foreignObject></g></g><path d="M156.911 0.00542068C154.15 0.0562401 151.953 2.33564 152.003 5.09659C152.054 7.85755 154.334 10.0545 157.095 10.0037L157.003 5.00457L156.911 0.00542068ZM142.585 16.0151C144.573 14.0991 144.632 10.9339 142.716 8.9453C140.8 6.95673 137.635 6.89789 135.646 8.81389L139.115 12.4145L142.585 16.0151ZM134.814 9.64612C132.898 11.6347 132.957 14.8 134.945 16.716C136.934 18.632 140.099 18.5731 142.015 16.5846L138.415 13.1153L134.814 9.64612ZM136.004 31.0946C136.055 28.3337 133.858 26.0543 131.097 26.0035C128.336 25.9527 126.056 28.1497 126.005 30.9106L131.005 31.0026L136.004 31.0946ZM126.005 32.0894C126.056 34.8504 128.336 37.0473 131.097 36.9965C133.858 36.9457 136.055 34.6663 136.004 31.9054L131.005 31.9974L126.005 32.0894ZM142.015 46.4154C140.099 44.4269 136.934 44.368 134.945 46.284C132.957 48.2 132.898 51.3653 134.814 53.3539L138.415 49.8847L142.015 46.4154ZM135.646 54.1861C137.635 56.1021 140.8 56.0433 142.716 54.0547C144.632 52.0661 144.573 48.9009 142.585 46.9849L139.115 50.5855L135.646 54.1861ZM157.095 52.9963C154.334 52.9455 152.054 55.1425 152.003 57.9034C151.953 60.6644 154.15 62.9438 156.911 62.9946L157.003 57.9954L157.095 52.9963ZM158.089 62.9946C160.85 62.9438 163.047 60.6644 162.996 57.9034C162.946 55.1425 160.666 52.9455 157.905 52.9963L157.997 57.9954L158.089 62.9946ZM172.415 46.9849C170.427 48.9009 170.368 52.0661 172.284 54.0547C174.2 56.0433 177.365 56.1021 179.354 54.1861L175.885 50.5855L172.415 46.9849ZM180.186 53.3539C182.102 51.3653 182.043 48.2 180.055 46.284C178.066 44.368 174.901 44.4269 172.985 46.4154L176.585 49.8847L180.186 53.3539ZM178.996 31.9054C178.945 34.6663 181.143 36.9457 183.903 36.9965C186.664 37.0473 188.944 34.8503 188.995 32.0894L183.995 31.9974L178.996 31.9054ZM188.995 30.9106C188.944 28.1496 186.664 25.9527 183.903 26.0035C181.143 26.0543 178.945 28.3337 178.996 31.0946L183.995 31.0026L188.995 30.9106ZM172.985 16.5846C174.901 18.5731 178.066 18.632 180.055 16.716C182.043 14.8 182.102 11.6347 180.186 9.64611L176.585 13.1153L172.985 16.5846ZM179.354 8.81388C177.365 6.89789 174.2 6.95672 172.284 8.94529C170.368 10.9339 170.427 14.0991 172.415 16.0151L175.885 12.4145L179.354 8.81388ZM157.905 10.0037C160.666 10.0545 162.946 7.85755 162.996 5.09659C163.047 2.33564 160.85 0.0562401 158.089 0.00542068L157.997 5.00457L157.905 10.0037ZM157.5 5V0C157.303 0 157.107 0.00181198 156.911 0.00542068L157.003 5.00457L157.095 10.0037C157.229 10.0012 157.365 10 157.5 10V5ZM139.115 12.4145L135.646 8.81389C135.364 9.08612 135.086 9.36358 134.814 9.64612L138.415 13.1153L142.015 16.5846C142.201 16.3912 142.391 16.2014 142.585 16.0151L139.115 12.4145ZM131.005 31.0026L126.005 30.9106C126.002 31.1067 126 31.3032 126 31.5H131H136C136 31.3645 136.001 31.2294 136.004 31.0946L131.005 31.0026ZM131 31.5H126C126 31.6968 126.002 31.8933 126.005 32.0894L131.005 31.9974L136.004 31.9054C136.001 31.7706 136 31.6355 136 31.5H131ZM138.415 49.8847L134.814 53.3539C135.086 53.6364 135.364 53.9139 135.646 54.1861L139.115 50.5855L142.585 46.9849C142.391 46.7986 142.201 46.6088 142.015 46.4154L138.415 49.8847ZM157.003 57.9954L156.911 62.9946C157.107 62.9982 157.303 63 157.5 63V58V53C157.365 53 157.229 52.9988 157.095 52.9963L157.003 57.9954ZM157.5 58V63C157.697 63 157.893 62.9982 158.089 62.9946L157.997 57.9954L157.905 52.9963C157.771 52.9988 157.635 53 157.5 53V58ZM175.885 50.5855L179.354 54.1861C179.636 53.9139 179.914 53.6364 180.186 53.3539L176.585 49.8847L172.985 46.4154C172.799 46.6088 172.609 46.7986 172.415 46.9849L175.885 50.5855ZM183.995 31.9974L188.995 32.0894C188.998 31.8933 189 31.6968 189 31.5H184H179C179 31.6355 178.999 31.7706 178.996 31.9054L183.995 31.9974ZM184 31.5H189C189 31.3032 188.998 31.1067 188.995 30.9106L183.995 31.0026L178.996 31.0946C178.999 31.2294 179 31.3645 179 31.5H184ZM176.585 13.1153L180.186 9.64611C179.914 9.36357 179.636 9.08611 179.354 8.81388L175.885 12.4145L172.415 16.0151C172.609 16.2014 172.799 16.3912 172.985 16.5846L176.585 13.1153ZM157.997 5.00457L158.089 0.00542068C157.893 0.00181198 157.697 0 157.5 0V5V10C157.635 10 157.771 10.0012 157.905 10.0037L157.997 5.00457Z" data-figma-gradient-fill="{&#34;type&#34;:&#34;GRADIENT_ANGULAR&#34;,&#34;stops&#34;:[{&#34;color&#34;:{&#34;r&#34;:0.054901961237192154,&#34;g&#34;:0.73725491762161255,&#34;b&#34;:0.49803921580314636,&#34;a&#34;:1.0},&#34;position&#34;:0.0},{&#34;color&#34;:{&#34;r&#34;:0.054901961237192154,&#34;g&#34;:0.73725491762161255,&#34;b&#34;:0.49803921580314636,&#34;a&#34;:0.0},&#34;position&#34;:1.0}],&#34;stopsVar&#34;:[{&#34;color&#34;:{&#34;r&#34;:0.054901961237192154,&#34;g&#34;:0.73725491762161255,&#34;b&#34;:0.49803921580314636,&#34;a&#34;:1.0},&#34;position&#34;:0.0},{&#34;color&#34;:{&#34;r&#34;:0.054901961237192154,&#34;g&#34;:0.73725491762161255,&#34;b&#34;:0.49803921580314636,&#34;a&#34;:0.0},&#34;position&#34;:1.0}],&#34;transform&#34;:{&#34;m00&#34;:49.000003814697266,&#34;m01&#34;:22.000001907348633,&#34;m02&#34;:122.0,&#34;m10&#34;:-22.000001907348633,&#34;m11&#34;:49.000003814697266,&#34;m12&#34;:18.000001907348633},&#34;opacity&#34;:1.0,&#34;blendMode&#34;:&#34;NORMAL&#34;,&#34;visible&#34;:true}"/>
<g clip-path="url(#paint3_angular_910_15986_clip_path)" data-figma-skip-parse="true"><g transform="matrix(0.00954594 -0.0251023 0.0251023 0.00954594 220.5 31.5)"><foreignObject x="-1561.27" y="-1561.27" width="3122.55" height="3122.55"><div xmlns="http://www.w3.org/1999/xhtml" style="background:conic-gradient(from 90deg,rgba(14, 188, 127, 1) 0deg,rgba(14, 188, 127, 0) 360deg);height:100%;width:100%;opacity:1"></div></foreignObject></g></g><path d="M197.813 9.64674C195.897 11.6349 195.955 14.8002 197.943 16.7166C199.932 18.6329 203.097 18.5747 205.013 16.5864L201.413 13.1166L197.813 9.64674ZM199.004 31.0973C199.055 28.3364 196.858 26.0566 194.098 26.0053C191.337 25.954 189.057 28.1505 189.005 30.9115L194.005 31.0044L199.004 31.0973ZM189.005 32.0884C189.057 34.8494 191.337 37.046 194.098 36.9947C196.858 36.9433 199.055 34.6635 199.004 31.9026L194.005 31.9955L189.005 32.0884ZM205.013 46.4135C203.097 44.4253 199.932 44.367 197.943 46.2834C195.955 48.1997 195.897 51.365 197.813 53.3532L201.413 49.8834L205.013 46.4135ZM198.647 54.1868C200.635 56.1031 203.8 56.0448 205.717 54.0566C207.633 52.0684 207.575 48.9031 205.586 46.9867L202.117 50.5868L198.647 54.1868ZM220.097 52.9962C217.336 52.9449 215.057 55.1415 215.005 57.9024C214.954 60.6634 217.151 62.9432 219.912 62.9945L220.004 57.9954L220.097 52.9962ZM221.088 62.9945C223.849 62.9432 226.046 60.6634 225.995 57.9024C225.943 55.1415 223.664 52.9449 220.903 52.9962L220.996 57.9954L221.088 62.9945ZM235.414 46.9867C233.425 48.9031 233.367 52.0684 235.283 54.0566C237.2 56.0448 240.365 56.1031 242.353 54.1868L238.883 50.5868L235.414 46.9867ZM243.187 53.3532C245.103 51.365 245.045 48.1997 243.057 46.2834C241.068 44.367 237.903 44.4253 235.987 46.4135L239.587 49.8834L243.187 53.3532ZM241.996 31.9026C241.945 34.6635 244.142 36.9433 246.902 36.9946C249.663 37.046 251.943 34.8494 251.995 32.0884L246.995 31.9955L241.996 31.9026ZM251.995 30.9115C251.943 28.1505 249.663 25.9539 246.902 26.0053C244.142 26.0566 241.945 28.3364 241.996 31.0973L246.995 31.0044L251.995 30.9115ZM235.987 16.5864C237.903 18.5747 241.068 18.6329 243.057 16.7166C245.045 14.8002 245.103 11.6349 243.187 9.64674L239.587 13.1166L235.987 16.5864ZM242.353 8.81324C240.365 6.89684 237.2 6.95514 235.283 8.94334C233.367 10.9315 233.425 14.0968 235.414 16.0132L238.883 12.4132L242.353 8.81324ZM220.903 10.0037C223.664 10.055 225.943 7.85844 225.995 5.09754C226.046 2.33658 223.849 0.0567813 221.088 0.00547125L220.996 5.00464L220.903 10.0037ZM219.912 0.00547125C217.151 0.0567913 214.954 2.33658 215.005 5.09754C215.057 7.85844 217.336 10.055 220.097 10.0037L220.004 5.00464L219.912 0.00547125ZM205.586 16.0132C207.575 14.0968 207.633 10.9315 205.717 8.94334C203.8 6.95514 200.635 6.89684 198.647 8.81324L202.117 12.4132L205.586 16.0132ZM201.762 12.7616L198.226 9.22614C198.087 9.36534 197.949 9.50554 197.813 9.64674L201.413 13.1166L205.013 16.5864C205.107 16.4894 205.201 16.393 205.297 16.2972L201.762 12.7616ZM194.005 31.0044L189.005 30.9115C188.998 31.3038 188.998 31.6962 189.005 32.0884L194.005 31.9955L199.004 31.9026C198.999 31.6342 198.999 31.3657 199.004 31.0973L194.005 31.0044ZM201.413 49.8834L197.813 53.3532C197.949 53.4944 198.087 53.6346 198.226 53.7738L201.762 50.2383L205.297 46.7028C205.201 46.607 205.107 46.5105 205.013 46.4135L201.413 49.8834ZM201.762 50.2383L198.226 53.7738C198.365 53.913 198.506 54.0506 198.647 54.1868L202.117 50.5868L205.586 46.9867C205.489 46.8932 205.393 46.7985 205.297 46.7028L201.762 50.2383ZM220.004 57.9954L219.912 62.9945C220.304 63.0018 220.696 63.0018 221.088 62.9945L220.996 57.9954L220.903 52.9962C220.634 53.0012 220.366 53.0012 220.097 52.9962L220.004 57.9954ZM238.883 50.5868L242.353 54.1868C242.494 54.0506 242.635 53.913 242.774 53.7738L239.238 50.2383L235.703 46.7028C235.607 46.7985 235.511 46.8932 235.414 46.9867L238.883 50.5868ZM239.238 50.2383L242.774 53.7738C242.913 53.6346 243.051 53.4944 243.187 53.3532L239.587 49.8834L235.987 46.4135C235.893 46.5105 235.799 46.607 235.703 46.7028L239.238 50.2383ZM246.995 31.9955L251.995 32.0884C252.002 31.6961 252.002 31.3038 251.995 30.9115L246.995 31.0044L241.996 31.0973C242.001 31.3657 242.001 31.6342 241.996 31.9026L246.995 31.9955ZM239.587 13.1166L243.187 9.64674C243.051 9.50554 242.913 9.36534 242.774 9.22614L239.238 12.7616L235.703 16.2972C235.799 16.393 235.893 16.4894 235.987 16.5864L239.587 13.1166ZM239.238 12.7616L242.774 9.22614C242.635 9.08694 242.494 8.94934 242.353 8.81324L238.883 12.4132L235.414 16.0132C235.511 16.1067 235.607 16.2014 235.703 16.2972L239.238 12.7616ZM220.996 5.00464L221.088 0.00547125C220.696 -0.00181875 220.304 -0.00182875 219.912 0.00547125L220.004 5.00464L220.097 10.0037C220.366 9.99874 220.634 9.99874 220.903 10.0037L220.996 5.00464ZM202.117 12.4132L198.647 8.81324C198.506 8.94934 198.365 9.08694 198.226 9.22614L201.762 12.7616L205.297 16.2972C205.393 16.2014 205.489 16.1067 205.586 16.0132L202.117 12.4132Z" data-figma-gradient-fill="{&#34;type&#34;:&#34;GRADIENT_ANGULAR&#34;,&#34;stops&#34;:[{&#34;color&#34;:{&#34;r&#34;:0.054901961237192154,&#34;g&#34;:0.73725491762161255,&#34;b&#34;:0.49803921580314636,&#34;a&#34;:1.0},&#34;position&#34;:0.0},{&#34;color&#34;:{&#34;r&#34;:0.054901961237192154,&#34;g&#34;:0.73725491762161255,&#34;b&#34;:0.49803921580314636,&#34;a&#34;:0.0},&#34;position&#34;:1.0}],&#34;stopsVar&#34;:[{&#34;color&#34;:{&#34;r&#34;:0.054901961237192154,&#34;g&#34;:0.73725491762161255,&#34;b&#34;:0.49803921580314636,&#34;a&#34;:1.0},&#34;position&#34;:0.0},{&#34;color&#34;:{&#34;r&#34;:0.054901961237192154,&#34;g&#34;:0.73725491762161255,&#34;b&#34;:0.49803921580314636,&#34;a&#34;:0.0},&#34;position&#34;:1.0}],&#34;transform&#34;:{&#34;m00&#34;:19.091882705688477,&#34;m01&#34;:50.204582214355469,&#34;m02&#34;:185.85176086425781,&#34;m10&#34;:-50.204582214355469,&#34;m11&#34;:19.091882705688477,&#34;m12&#34;:47.056346893310547},&#34;opacity&#34;:1.0,&#34;blendMode&#34;:&#34;NORMAL&#34;,&#34;visible&#34;:true}"/>
<g clip-path="url(#paint4_angular_910_15986_clip_path)" data-figma-skip-parse="true"><g transform="matrix(-0.011 -0.0245 0.0245 -0.011 283.5 31.5)"><foreignObject x="-1599.65" y="-1599.65" width="3199.31" height="3199.31"><div xmlns="http://www.w3.org/1999/xhtml" style="background:conic-gradient(from 90deg,rgba(14, 188, 127, 1) 0deg,rgba(14, 188, 127, 0) 360deg);height:100%;width:100%;opacity:1"></div></foreignObject></g></g><path d="M252.005 32.0894C252.056 34.8504 254.336 37.0473 257.097 36.9965C259.858 36.9457 262.055 34.6663 262.004 31.9054L257.005 31.9974L252.005 32.0894ZM268.015 46.4154C266.099 44.4269 262.934 44.368 260.945 46.284C258.957 48.2 258.898 51.3653 260.814 53.3539L264.415 49.8847L268.015 46.4154ZM261.646 54.1861C263.635 56.1021 266.8 56.0433 268.716 54.0547C270.632 52.0661 270.573 48.9009 268.585 46.9849L265.115 50.5855L261.646 54.1861ZM283.095 52.9963C280.334 52.9455 278.054 55.1425 278.003 57.9034C277.953 60.6644 280.15 62.9438 282.911 62.9946L283.003 57.9954L283.095 52.9963ZM284.089 62.9946C286.85 62.9438 289.047 60.6644 288.996 57.9034C288.946 55.1425 286.666 52.9455 283.905 52.9963L283.997 57.9954L284.089 62.9946ZM298.415 46.9849C296.427 48.9009 296.368 52.0661 298.284 54.0547C300.2 56.0433 303.365 56.1021 305.354 54.1861L301.885 50.5855L298.415 46.9849ZM306.186 53.3539C308.102 51.3653 308.043 48.2 306.055 46.284C304.066 44.368 300.901 44.4269 298.985 46.4154L302.585 49.8847L306.186 53.3539ZM304.996 31.9054C304.945 34.6663 307.143 36.9457 309.903 36.9965C312.664 37.0473 314.944 34.8503 314.995 32.0894L309.995 31.9974L304.996 31.9054ZM314.995 30.9106C314.944 28.1496 312.664 25.9527 309.903 26.0035C307.143 26.0543 304.945 28.3337 304.996 31.0946L309.995 31.0026L314.995 30.9106ZM298.985 16.5846C300.901 18.5731 304.066 18.632 306.055 16.716C308.043 14.8 308.102 11.6347 306.186 9.64611L302.585 13.1153L298.985 16.5846ZM305.354 8.81388C303.365 6.89789 300.2 6.95672 298.284 8.94529C296.368 10.9339 296.427 14.0991 298.415 16.0151L301.885 12.4145L305.354 8.81388ZM283.905 10.0037C286.666 10.0545 288.946 7.85755 288.996 5.09659C289.047 2.33564 286.85 0.0562401 284.089 0.00542068L283.997 5.00457L283.905 10.0037ZM282.911 0.00542068C280.15 0.0562401 277.953 2.33564 278.003 5.09659C278.054 7.85755 280.334 10.0545 283.095 10.0037L283.003 5.00457L282.911 0.00542068ZM268.585 16.0151C270.573 14.0991 270.632 10.9339 268.716 8.9453C266.8 6.95673 263.635 6.89789 261.646 8.81389L265.115 12.4145L268.585 16.0151ZM260.814 9.64612C258.898 11.6347 258.957 14.8 260.945 16.716C262.934 18.632 266.099 18.5731 268.015 16.5846L264.415 13.1153L260.814 9.64612ZM262.004 31.0946C262.055 28.3337 259.858 26.0543 257.097 26.0035C254.336 25.9527 252.056 28.1497 252.005 30.9106L257.005 31.0026L262.004 31.0946ZM257 31.5H252C252 31.6968 252.002 31.8933 252.005 32.0894L257.005 31.9974L262.004 31.9054C262.001 31.7706 262 31.6355 262 31.5H257ZM264.415 49.8847L260.814 53.3539C261.086 53.6364 261.364 53.9139 261.646 54.1861L265.115 50.5855L268.585 46.9849C268.391 46.7986 268.201 46.6088 268.015 46.4154L264.415 49.8847ZM283.003 57.9954L282.911 62.9946C283.107 62.9982 283.303 63 283.5 63V58V53C283.365 53 283.229 52.9988 283.095 52.9963L283.003 57.9954ZM283.5 58V63C283.697 63 283.893 62.9982 284.089 62.9946L283.997 57.9954L283.905 52.9963C283.771 52.9988 283.635 53 283.5 53V58ZM301.885 50.5855L305.354 54.1861C305.636 53.9139 305.914 53.6364 306.186 53.3539L302.585 49.8847L298.985 46.4154C298.799 46.6088 298.609 46.7986 298.415 46.9849L301.885 50.5855ZM309.995 31.9974L314.995 32.0894C314.998 31.8933 315 31.6968 315 31.5H310H305C305 31.6355 304.999 31.7706 304.996 31.9054L309.995 31.9974ZM310 31.5H315C315 31.3032 314.998 31.1067 314.995 30.9106L309.995 31.0026L304.996 31.0946C304.999 31.2294 305 31.3645 305 31.5H310ZM302.585 13.1153L306.186 9.64611C305.914 9.36357 305.636 9.08611 305.354 8.81388L301.885 12.4145L298.415 16.0151C298.609 16.2014 298.799 16.3912 298.985 16.5846L302.585 13.1153ZM283.997 5.00457L284.089 0.00542068C283.893 0.00181198 283.697 0 283.5 0V5V10C283.635 10 283.771 10.0012 283.905 10.0037L283.997 5.00457ZM283.5 5V0C283.303 0 283.107 0.00181198 282.911 0.00542068L283.003 5.00457L283.095 10.0037C283.229 10.0012 283.365 10 283.5 10V5ZM265.115 12.4145L261.646 8.81389C261.364 9.08612 261.086 9.36358 260.814 9.64612L264.415 13.1153L268.015 16.5846C268.201 16.3912 268.391 16.2014 268.585 16.0151L265.115 12.4145ZM257.005 31.0026L252.005 30.9106C252.002 31.1067 252 31.3032 252 31.5H257H262C262 31.3645 262.001 31.2294 262.004 31.0946L257.005 31.0026Z" data-figma-gradient-fill="{&#34;type&#34;:&#34;GRADIENT_ANGULAR&#34;,&#34;stops&#34;:[{&#34;color&#34;:{&#34;r&#34;:0.054901961237192154,&#34;g&#34;:0.73725491762161255,&#34;b&#34;:0.49803921580314636,&#34;a&#34;:1.0},&#34;position&#34;:0.0},{&#34;color&#34;:{&#34;r&#34;:0.054901961237192154,&#34;g&#34;:0.73725491762161255,&#34;b&#34;:0.49803921580314636,&#34;a&#34;:0.0},&#34;position&#34;:1.0}],&#34;stopsVar&#34;:[{&#34;color&#34;:{&#34;r&#34;:0.054901961237192154,&#34;g&#34;:0.73725491762161255,&#34;b&#34;:0.49803921580314636,&#34;a&#34;:1.0},&#34;position&#34;:0.0},{&#34;color&#34;:{&#34;r&#34;:0.054901961237192154,&#34;g&#34;:0.73725491762161255,&#34;b&#34;:0.49803921580314636,&#34;a&#34;:0.0},&#34;position&#34;:1.0}],&#34;transform&#34;:{&#34;m00&#34;:-22.000001907348633,&#34;m01&#34;:49.000003814697266,&#34;m02&#34;:270.0,&#34;m10&#34;:-49.000003814697266,&#34;m11&#34;:-22.000001907348633,&#34;m12&#34;:67.0},&#34;opacity&#34;:1.0,&#34;blendMode&#34;:&#34;NORMAL&#34;,&#34;visible&#34;:true}"/>
<g clip-path="url(#paint5_angular_910_15986_clip_path)" data-figma-skip-parse="true"><g transform="matrix(-0.0251023 -0.00954594 0.00954594 -0.0251023 346.5 31.5)"><foreignObject x="-1561.27" y="-1561.27" width="3122.55" height="3122.55"><div xmlns="http://www.w3.org/1999/xhtml" style="background:conic-gradient(from 90deg,rgba(14, 188, 127, 1) 0deg,rgba(14, 188, 127, 0) 360deg);height:100%;width:100%;opacity:1"></div></foreignObject></g></g><path d="M324.647 54.1868C326.635 56.1031 329.8 56.0448 331.717 54.0566C333.633 52.0684 333.575 48.9031 331.586 46.9867L328.117 50.5868L324.647 54.1868ZM346.097 52.9962C343.336 52.9449 341.057 55.1415 341.005 57.9024C340.954 60.6634 343.151 62.9432 345.912 62.9945L346.004 57.9954L346.097 52.9962ZM347.088 62.9945C349.849 62.9432 352.046 60.6634 351.995 57.9024C351.943 55.1415 349.664 52.9449 346.903 52.9962L346.996 57.9954L347.088 62.9945ZM361.414 46.9867C359.425 48.9031 359.367 52.0684 361.283 54.0566C363.2 56.0448 366.365 56.1031 368.353 54.1868L364.883 50.5868L361.414 46.9867ZM369.187 53.3532C371.103 51.365 371.045 48.1997 369.057 46.2834C367.068 44.367 363.903 44.4253 361.987 46.4135L365.587 49.8834L369.187 53.3532ZM367.996 31.9026C367.945 34.6635 370.142 36.9433 372.902 36.9946C375.663 37.046 377.943 34.8494 377.995 32.0884L372.995 31.9955L367.996 31.9026ZM377.995 30.9115C377.943 28.1505 375.663 25.9539 372.902 26.0053C370.142 26.0566 367.945 28.3364 367.996 31.0973L372.995 31.0044L377.995 30.9115ZM361.987 16.5864C363.903 18.5747 367.068 18.6329 369.057 16.7166C371.045 14.8002 371.103 11.6349 369.187 9.64674L365.587 13.1166L361.987 16.5864ZM368.353 8.81324C366.365 6.89684 363.2 6.95514 361.283 8.94334C359.367 10.9315 359.425 14.0968 361.414 16.0132L364.883 12.4132L368.353 8.81324ZM346.903 10.0037C349.664 10.055 351.943 7.85844 351.995 5.09754C352.046 2.33658 349.849 0.0567775 347.088 0.0054675L346.996 5.00464L346.903 10.0037ZM345.912 0.0054675C343.151 0.0567875 340.954 2.33658 341.005 5.09754C341.057 7.85844 343.336 10.055 346.097 10.0037L346.004 5.00464L345.912 0.0054675ZM331.586 16.0132C333.575 14.0968 333.633 10.9315 331.717 8.94334C329.8 6.95514 326.635 6.89684 324.647 8.81324L328.117 12.4132L331.586 16.0132ZM323.813 9.64674C321.897 11.6349 321.955 14.8002 323.943 16.7166C325.932 18.6329 329.097 18.5747 331.013 16.5864L327.413 13.1166L323.813 9.64674ZM325.004 31.0973C325.055 28.3364 322.858 26.0566 320.098 26.0053C317.337 25.954 315.057 28.1505 315.005 30.9115L320.005 31.0044L325.004 31.0973ZM315.005 32.0884C315.057 34.8494 317.337 37.046 320.098 36.9947C322.858 36.9433 325.055 34.6635 325.004 31.9026L320.005 31.9955L315.005 32.0884ZM331.013 46.4135C329.097 44.4253 325.932 44.367 323.943 46.2834C321.955 48.1997 321.897 51.365 323.813 53.3532L327.413 49.8834L331.013 46.4135ZM327.762 50.2383L324.226 53.7738C324.365 53.913 324.506 54.0506 324.647 54.1868L328.117 50.5868L331.586 46.9867C331.489 46.8932 331.393 46.7985 331.297 46.7028L327.762 50.2383ZM346.004 57.9954L345.912 62.9945C346.304 63.0018 346.696 63.0018 347.088 62.9945L346.996 57.9954L346.903 52.9962C346.634 53.0012 346.366 53.0012 346.097 52.9962L346.004 57.9954ZM364.883 50.5868L368.353 54.1868C368.494 54.0506 368.635 53.913 368.774 53.7738L365.238 50.2383L361.703 46.7028C361.607 46.7985 361.511 46.8932 361.414 46.9867L364.883 50.5868ZM365.238 50.2383L368.774 53.7738C368.913 53.6346 369.051 53.4944 369.187 53.3532L365.587 49.8834L361.987 46.4135C361.893 46.5105 361.799 46.607 361.703 46.7028L365.238 50.2383ZM372.995 31.9955L377.995 32.0884C378.002 31.6962 378.002 31.3038 377.995 30.9115L372.995 31.0044L367.996 31.0973C368.001 31.3657 368.001 31.6342 367.996 31.9026L372.995 31.9955ZM365.587 13.1166L369.187 9.64674C369.051 9.50554 368.913 9.36534 368.774 9.22614L365.238 12.7616L361.703 16.2972C361.799 16.393 361.893 16.4894 361.987 16.5864L365.587 13.1166ZM365.238 12.7616L368.774 9.22614C368.635 9.08694 368.494 8.94934 368.353 8.81324L364.883 12.4132L361.414 16.0132C361.511 16.1067 361.607 16.2014 361.703 16.2972L365.238 12.7616ZM346.996 5.00464L347.088 0.0054675C346.696 -0.0018225 346.304 -0.0018225 345.912 0.0054675L346.004 5.00464L346.097 10.0037C346.366 9.99874 346.634 9.99874 346.903 10.0037L346.996 5.00464ZM328.117 12.4132L324.647 8.81324C324.506 8.94934 324.365 9.08694 324.226 9.22614L327.762 12.7616L331.297 16.2972C331.393 16.2014 331.489 16.1067 331.586 16.0132L328.117 12.4132ZM327.762 12.7616L324.226 9.22614C324.087 9.36534 323.949 9.50554 323.813 9.64674L327.413 13.1166L331.013 16.5864C331.107 16.4894 331.201 16.393 331.297 16.2972L327.762 12.7616ZM320.005 31.0044L315.005 30.9115C314.998 31.3038 314.998 31.6962 315.005 32.0884L320.005 31.9955L325.004 31.9026C324.999 31.6342 324.999 31.3657 325.004 31.0973L320.005 31.0044ZM327.413 49.8834L323.813 53.3532C323.949 53.4944 324.087 53.6346 324.226 53.7738L327.762 50.2383L331.297 46.7028C331.201 46.607 331.107 46.5105 331.013 46.4135L327.413 49.8834Z" data-figma-gradient-fill="{&#34;type&#34;:&#34;GRADIENT_ANGULAR&#34;,&#34;stops&#34;:[{&#34;color&#34;:{&#34;r&#34;:0.054901961237192154,&#34;g&#34;:0.73725491762161255,&#34;b&#34;:0.49803921580314636,&#34;a&#34;:1.0},&#34;position&#34;:0.0},{&#34;color&#34;:{&#34;r&#34;:0.054901961237192154,&#34;g&#34;:0.73725491762161255,&#34;b&#34;:0.49803921580314636,&#34;a&#34;:0.0},&#34;position&#34;:1.0}],&#34;stopsVar&#34;:[{&#34;color&#34;:{&#34;r&#34;:0.054901961237192154,&#34;g&#34;:0.73725491762161255,&#34;b&#34;:0.49803921580314636,&#34;a&#34;:1.0},&#34;position&#34;:0.0},{&#34;color&#34;:{&#34;r&#34;:0.054901961237192154,&#34;g&#34;:0.73725491762161255,&#34;b&#34;:0.49803921580314636,&#34;a&#34;:0.0},&#34;position&#34;:1.0}],&#34;transform&#34;:{&#34;m00&#34;:-50.204582214355469,&#34;m01&#34;:19.091882705688477,&#34;m02&#34;:362.05633544921875,&#34;m10&#34;:-19.091882705688477,&#34;m11&#34;:-50.204582214355469,&#34;m12&#34;:66.148231506347656},&#34;opacity&#34;:1.0,&#34;blendMode&#34;:&#34;NORMAL&#34;,&#34;visible&#34;:true}"/>
<g clip-path="url(#paint6_angular_910_15986_clip_path)" data-figma-skip-parse="true"><g transform="matrix(-0.0245 0.011 -0.011 -0.0245 409.5 31.5)"><foreignObject x="-1599.65" y="-1599.65" width="3199.31" height="3199.31"><div xmlns="http://www.w3.org/1999/xhtml" style="background:conic-gradient(from 90deg,rgba(14, 188, 127, 1) 0deg,rgba(14, 188, 127, 0) 360deg);height:100%;width:100%;opacity:1"></div></foreignObject></g></g><path d="M410.089 62.9946C412.85 62.9438 415.047 60.6644 414.996 57.9034C414.946 55.1425 412.666 52.9455 409.905 52.9963L409.997 57.9954L410.089 62.9946ZM424.415 46.9849C422.427 48.9009 422.368 52.0661 424.284 54.0547C426.2 56.0433 429.365 56.1021 431.354 54.1861L427.885 50.5855L424.415 46.9849ZM432.186 53.3539C434.102 51.3653 434.043 48.2 432.055 46.284C430.066 44.368 426.901 44.4269 424.985 46.4154L428.585 49.8847L432.186 53.3539ZM430.996 31.9054C430.945 34.6663 433.143 36.9457 435.903 36.9965C438.664 37.0473 440.944 34.8503 440.995 32.0894L435.995 31.9974L430.996 31.9054ZM440.995 30.9106C440.944 28.1496 438.664 25.9527 435.903 26.0035C433.143 26.0543 430.945 28.3337 430.996 31.0946L435.995 31.0026L440.995 30.9106ZM424.985 16.5846C426.901 18.5731 430.066 18.632 432.055 16.716C434.043 14.8 434.102 11.6347 432.186 9.64612L428.585 13.1153L424.985 16.5846ZM431.354 8.81389C429.365 6.89789 426.2 6.95672 424.284 8.94529C422.368 10.9339 422.427 14.0991 424.415 16.0151L427.885 12.4145L431.354 8.81389ZM409.905 10.0037C412.666 10.0545 414.946 7.85755 414.996 5.09659C415.047 2.33564 412.85 0.0562415 410.089 0.00542116L409.997 5.00457L409.905 10.0037ZM408.911 0.00542116C406.15 0.0562415 403.953 2.33564 404.003 5.09659C404.054 7.85755 406.334 10.0545 409.095 10.0037L409.003 5.00457L408.911 0.00542116ZM394.585 16.0151C396.573 14.0991 396.632 10.9339 394.716 8.9453C392.8 6.95673 389.635 6.89789 387.646 8.81389L391.115 12.4145L394.585 16.0151ZM386.814 9.64612C384.898 11.6347 384.957 14.8 386.945 16.716C388.934 18.632 392.099 18.5731 394.015 16.5846L390.415 13.1153L386.814 9.64612ZM388.004 31.0946C388.055 28.3337 385.858 26.0543 383.097 26.0035C380.336 25.9527 378.056 28.1497 378.005 30.9106L383.005 31.0026L388.004 31.0946ZM378.005 32.0894C378.056 34.8504 380.336 37.0473 383.097 36.9965C385.858 36.9457 388.055 34.6663 388.004 31.9054L383.005 31.9974L378.005 32.0894ZM394.015 46.4154C392.099 44.4269 388.934 44.368 386.945 46.284C384.957 48.2 384.898 51.3653 386.814 53.3539L390.415 49.8847L394.015 46.4154ZM387.646 54.1861C389.635 56.1021 392.8 56.0433 394.716 54.0547C396.632 52.0661 396.573 48.9009 394.585 46.9849L391.115 50.5855L387.646 54.1861ZM409.095 52.9963C406.334 52.9455 404.054 55.1425 404.003 57.9034C403.953 60.6644 406.15 62.9438 408.911 62.9946L409.003 57.9954L409.095 52.9963ZM409.5 58V63C409.697 63 409.893 62.9982 410.089 62.9946L409.997 57.9954L409.905 52.9963C409.771 52.9988 409.635 53 409.5 53V58ZM427.885 50.5855L431.354 54.1861C431.636 53.9139 431.914 53.6364 432.186 53.3539L428.585 49.8847L424.985 46.4154C424.799 46.6088 424.609 46.7986 424.415 46.9849L427.885 50.5855ZM435.995 31.9974L440.995 32.0894C440.998 31.8933 441 31.6968 441 31.5H436H431C431 31.6355 430.999 31.7706 430.996 31.9054L435.995 31.9974ZM436 31.5H441C441 31.3032 440.998 31.1067 440.995 30.9106L435.995 31.0026L430.996 31.0946C430.999 31.2294 431 31.3645 431 31.5H436ZM428.585 13.1153L432.186 9.64612C431.914 9.36358 431.636 9.08611 431.354 8.81389L427.885 12.4145L424.415 16.0151C424.609 16.2014 424.799 16.3912 424.985 16.5846L428.585 13.1153ZM409.997 5.00457L410.089 0.00542116C409.893 0.0018115 409.697 0 409.5 0V5V10C409.635 10 409.771 10.0012 409.905 10.0037L409.997 5.00457ZM409.5 5V0C409.303 0 409.107 0.0018115 408.911 0.00542116L409.003 5.00457L409.095 10.0037C409.229 10.0012 409.365 10 409.5 10V5ZM391.115 12.4145L387.646 8.81389C387.364 9.08612 387.086 9.36358 386.814 9.64612L390.415 13.1153L394.015 16.5846C394.201 16.3912 394.391 16.2014 394.585 16.0151L391.115 12.4145ZM383.005 31.0026L378.005 30.9106C378.002 31.1067 378 31.3032 378 31.5H383H388C388 31.3645 388.001 31.2294 388.004 31.0946L383.005 31.0026ZM383 31.5H378C378 31.6968 378.002 31.8933 378.005 32.0894L383.005 31.9974L388.004 31.9054C388.001 31.7706 388 31.6355 388 31.5H383ZM390.415 49.8847L386.814 53.3539C387.086 53.6364 387.364 53.9139 387.646 54.1861L391.115 50.5855L394.585 46.9849C394.391 46.7986 394.201 46.6088 394.015 46.4154L390.415 49.8847ZM409.003 57.9954L408.911 62.9946C409.107 62.9982 409.303 63 409.5 63V58V53C409.365 53 409.229 52.9988 409.095 52.9963L409.003 57.9954Z" data-figma-gradient-fill="{&#34;type&#34;:&#34;GRADIENT_ANGULAR&#34;,&#34;stops&#34;:[{&#34;color&#34;:{&#34;r&#34;:0.054901961237192154,&#34;g&#34;:0.73725491762161255,&#34;b&#34;:0.49803921580314636,&#34;a&#34;:1.0},&#34;position&#34;:0.0},{&#34;color&#34;:{&#34;r&#34;:0.054901961237192154,&#34;g&#34;:0.73725491762161255,&#34;b&#34;:0.49803921580314636,&#34;a&#34;:0.0},&#34;position&#34;:1.0}],&#34;stopsVar&#34;:[{&#34;color&#34;:{&#34;r&#34;:0.054901961237192154,&#34;g&#34;:0.73725491762161255,&#34;b&#34;:0.49803921580314636,&#34;a&#34;:1.0},&#34;position&#34;:0.0},{&#34;color&#34;:{&#34;r&#34;:0.054901961237192154,&#34;g&#34;:0.73725491762161255,&#34;b&#34;:0.49803921580314636,&#34;a&#34;:0.0},&#34;position&#34;:1.0}],&#34;transform&#34;:{&#34;m00&#34;:-49.000003814697266,&#34;m01&#34;:-22.000001907348633,&#34;m02&#34;:445.0,&#34;m10&#34;:22.000001907348633,&#34;m11&#34;:-49.000003814697266,&#34;m12&#34;:45.0},&#34;opacity&#34;:1.0,&#34;blendMode&#34;:&#34;NORMAL&#34;,&#34;visible&#34;:true}"/>
<g clip-path="url(#paint7_angular_910_15986_clip_path)" data-figma-skip-parse="true"><g transform="matrix(-0.00954594 0.0251023 -0.0251023 -0.00954594 472.5 31.5)"><foreignObject x="-1561.27" y="-1561.27" width="3122.55" height="3122.55"><div xmlns="http://www.w3.org/1999/xhtml" style="background:conic-gradient(from 90deg,rgba(14, 188, 127, 1) 0deg,rgba(14, 188, 127, 0) 360deg);height:100%;width:100%;opacity:1"></div></foreignObject></g></g><path d="M495.187 53.3532C497.103 51.365 497.045 48.1997 495.057 46.2834C493.068 44.367 489.903 44.4253 487.987 46.4135L491.587 49.8834L495.187 53.3532ZM493.996 31.9026C493.945 34.6635 496.142 36.9433 498.902 36.9946C501.663 37.046 503.943 34.8494 503.995 32.0884L498.995 31.9955L493.996 31.9026ZM503.995 30.9115C503.943 28.1505 501.663 25.9539 498.902 26.0053C496.142 26.0566 493.945 28.3364 493.996 31.0973L498.995 31.0044L503.995 30.9115ZM487.987 16.5864C489.903 18.5747 493.068 18.6329 495.057 16.7166C497.045 14.8002 497.103 11.6349 495.187 9.64674L491.587 13.1166L487.987 16.5864ZM494.353 8.81324C492.365 6.89684 489.2 6.95514 487.283 8.94334C485.367 10.9315 485.425 14.0968 487.414 16.0132L490.883 12.4132L494.353 8.81324ZM472.903 10.0037C475.664 10.055 477.943 7.85844 477.995 5.09754C478.046 2.33658 475.849 0.0567875 473.088 0.0054675L472.996 5.00464L472.903 10.0037ZM471.912 0.0054675C469.151 0.0567875 466.954 2.33658 467.005 5.09754C467.057 7.85844 469.336 10.055 472.097 10.0037L472.004 5.00464L471.912 0.0054675ZM457.586 16.0132C459.575 14.0968 459.633 10.9315 457.717 8.94334C455.8 6.95514 452.635 6.89684 450.647 8.81324L454.117 12.4132L457.586 16.0132ZM449.813 9.64674C447.897 11.6349 447.955 14.8002 449.943 16.7166C451.932 18.6329 455.097 18.5747 457.013 16.5864L453.413 13.1166L449.813 9.64674ZM451.004 31.0973C451.055 28.3364 448.858 26.0566 446.098 26.0053C443.337 25.954 441.057 28.1505 441.005 30.9115L446.005 31.0044L451.004 31.0973ZM441.005 32.0884C441.057 34.8494 443.337 37.046 446.098 36.9947C448.858 36.9433 451.055 34.6635 451.004 31.9026L446.005 31.9955L441.005 32.0884ZM457.013 46.4135C455.097 44.4253 451.932 44.367 449.943 46.2834C447.955 48.1997 447.897 51.365 449.813 53.3532L453.413 49.8834L457.013 46.4135ZM450.647 54.1868C452.635 56.1031 455.8 56.0448 457.717 54.0566C459.633 52.0684 459.575 48.9031 457.586 46.9867L454.117 50.5868L450.647 54.1868ZM472.097 52.9962C469.336 52.9449 467.057 55.1415 467.005 57.9024C466.954 60.6634 469.151 62.9432 471.912 62.9945L472.004 57.9954L472.097 52.9962ZM473.088 62.9945C475.849 62.9432 478.046 60.6634 477.995 57.9024C477.943 55.1415 475.664 52.9449 472.903 52.9962L472.996 57.9954L473.088 62.9945ZM487.414 46.9867C485.425 48.9031 485.367 52.0684 487.283 54.0566C489.2 56.0448 492.365 56.1031 494.353 54.1868L490.883 50.5868L487.414 46.9867ZM491.238 50.2383L494.774 53.7738C494.913 53.6346 495.051 53.4944 495.187 53.3532L491.587 49.8834L487.987 46.4135C487.893 46.5105 487.799 46.607 487.703 46.7028L491.238 50.2383ZM498.995 31.9955L503.995 32.0884C504.002 31.6961 504.002 31.3038 503.995 30.9115L498.995 31.0044L493.996 31.0973C494.001 31.3657 494.001 31.6342 493.996 31.9026L498.995 31.9955ZM491.587 13.1166L495.187 9.64674C495.051 9.50554 494.913 9.36534 494.774 9.22614L491.238 12.7616L487.703 16.2972C487.799 16.393 487.893 16.4894 487.987 16.5864L491.587 13.1166ZM491.238 12.7616L494.774 9.22614C494.635 9.08694 494.494 8.94934 494.353 8.81324L490.883 12.4132L487.414 16.0132C487.511 16.1067 487.607 16.2014 487.703 16.2972L491.238 12.7616ZM472.996 5.00464L473.088 0.0054675C472.696 -0.0018225 472.304 -0.0018225 471.912 0.0054675L472.004 5.00464L472.097 10.0037C472.366 9.99874 472.634 9.99874 472.903 10.0037L472.996 5.00464ZM454.117 12.4132L450.647 8.81324C450.506 8.94934 450.365 9.08694 450.226 9.22614L453.762 12.7616L457.297 16.2972C457.393 16.2014 457.489 16.1067 457.586 16.0132L454.117 12.4132ZM453.762 12.7616L450.226 9.22614C450.087 9.36534 449.949 9.50554 449.813 9.64674L453.413 13.1166L457.013 16.5864C457.107 16.4894 457.201 16.393 457.297 16.2972L453.762 12.7616ZM446.005 31.0044L441.005 30.9115C440.998 31.3038 440.998 31.6962 441.005 32.0884L446.005 31.9955L451.004 31.9026C450.999 31.6342 450.999 31.3657 451.004 31.0973L446.005 31.0044ZM453.413 49.8834L449.813 53.3532C449.949 53.4944 450.087 53.6346 450.226 53.7738L453.762 50.2383L457.297 46.7028C457.201 46.607 457.107 46.5105 457.013 46.4135L453.413 49.8834ZM453.762 50.2383L450.226 53.7738C450.365 53.913 450.506 54.0506 450.647 54.1868L454.117 50.5868L457.586 46.9867C457.489 46.8932 457.393 46.7985 457.297 46.7028L453.762 50.2383ZM472.004 57.9954L471.912 62.9945C472.304 63.0018 472.696 63.0018 473.088 62.9945L472.996 57.9954L472.903 52.9962C472.634 53.0012 472.366 53.0012 472.097 52.9962L472.004 57.9954ZM490.883 50.5868L494.353 54.1868C494.494 54.0506 494.635 53.913 494.774 53.7738L491.238 50.2383L487.703 46.7028C487.607 46.7985 487.511 46.8932 487.414 46.9867L490.883 50.5868Z" data-figma-gradient-fill="{&#34;type&#34;:&#34;GRADIENT_ANGULAR&#34;,&#34;stops&#34;:[{&#34;color&#34;:{&#34;r&#34;:0.054901961237192154,&#34;g&#34;:0.73725491762161255,&#34;b&#34;:0.49803921580314636,&#34;a&#34;:1.0},&#34;position&#34;:0.0},{&#34;color&#34;:{&#34;r&#34;:0.054901961237192154,&#34;g&#34;:0.73725491762161255,&#34;b&#34;:0.49803921580314636,&#34;a&#34;:0.0},&#34;position&#34;:1.0}],&#34;stopsVar&#34;:[{&#34;color&#34;:{&#34;r&#34;:0.054901961237192154,&#34;g&#34;:0.73725491762161255,&#34;b&#34;:0.49803921580314636,&#34;a&#34;:1.0},&#34;position&#34;:0.0},{&#34;color&#34;:{&#34;r&#34;:0.054901961237192154,&#34;g&#34;:0.73725491762161255,&#34;b&#34;:0.49803921580314636,&#34;a&#34;:0.0},&#34;position&#34;:1.0}],&#34;transform&#34;:{&#34;m00&#34;:-19.091882705688477,&#34;m01&#34;:-50.204582214355469,&#34;m02&#34;:507.14822387695312,&#34;m10&#34;:50.204582214355469,&#34;m11&#34;:-19.091882705688477,&#34;m12&#34;:15.943649291992188},&#34;opacity&#34;:1.0,&#34;blendMode&#34;:&#34;NORMAL&#34;,&#34;visible&#34;:true}"/>
<defs>
<clipPath id="paint0_angular_910_15986_clip_path"><path d="M62.9946 30.9106C62.9438 28.1496 60.6644 25.9527 57.9034 26.0035C55.1425 26.0543 52.9455 28.3337 52.9963 31.0946L57.9954 31.0026L62.9946 30.9106ZM46.9849 16.5846C48.9009 18.5731 52.0661 18.632 54.0547 16.716C56.0433 14.8 56.1021 11.6347 54.1861 9.64612L50.5855 13.1153L46.9849 16.5846ZM53.3539 8.81389C51.3653 6.89789 48.2 6.95672 46.284 8.94529C44.368 10.9339 44.4269 14.0991 46.4154 16.0151L49.8847 12.4145L53.3539 8.81389ZM31.9054 10.0037C34.6663 10.0545 36.9457 7.85755 36.9965 5.09659C37.0473 2.33564 34.8503 0.0562415 32.0894 0.00542116L31.9974 5.00457L31.9054 10.0037ZM30.9106 0.00542116C28.1496 0.0562415 25.9527 2.33564 26.0035 5.09659C26.0543 7.85755 28.3337 10.0545 31.0946 10.0037L31.0026 5.00457L30.9106 0.00542116ZM16.5846 16.0151C18.5731 14.0991 18.632 10.9339 16.716 8.9453C14.8 6.95673 11.6347 6.89789 9.64612 8.81389L13.1153 12.4145L16.5846 16.0151ZM8.81389 9.64612C6.89789 11.6347 6.95672 14.8 8.94529 16.716C10.9339 18.632 14.0991 18.5731 16.0151 16.5846L12.4145 13.1153L8.81389 9.64612ZM10.0037 31.0946C10.0545 28.3337 7.85755 26.0543 5.09659 26.0035C2.33564 25.9527 0.0562415 28.1497 0.00542116 30.9106L5.00457 31.0026L10.0037 31.0946ZM0.00542116 32.0894C0.0562415 34.8504 2.33564 37.0473 5.09659 36.9965C7.85755 36.9457 10.0545 34.6663 10.0037 31.9054L5.00457 31.9974L0.00542116 32.0894ZM16.0151 46.4154C14.0991 44.4269 10.9339 44.368 8.9453 46.284C6.95673 48.2 6.89789 51.3653 8.81389 53.3539L12.4145 49.8847L16.0151 46.4154ZM9.64612 54.1861C11.6347 56.1021 14.8 56.0433 16.716 54.0547C18.632 52.0661 18.5731 48.9009 16.5846 46.9849L13.1153 50.5855L9.64612 54.1861ZM31.0946 52.9963C28.3337 52.9455 26.0543 55.1425 26.0035 57.9034C25.9527 60.6644 28.1497 62.9438 30.9106 62.9946L31.0026 57.9954L31.0946 52.9963ZM32.0894 62.9946C34.8504 62.9438 37.0473 60.6644 36.9965 57.9034C36.9457 55.1425 34.6663 52.9455 31.9054 52.9963L31.9974 57.9954L32.0894 62.9946ZM46.4154 46.9849C44.4269 48.9009 44.368 52.0661 46.284 54.0547C48.2 56.0433 51.3653 56.1021 53.3539 54.1861L49.8847 50.5855L46.4154 46.9849ZM54.1861 53.3539C56.1021 51.3653 56.0433 48.2 54.0547 46.284C52.0661 44.368 48.9009 44.4269 46.9849 46.4154L50.5855 49.8847L54.1861 53.3539ZM52.9963 31.9054C52.9455 34.6663 55.1425 36.9457 57.9034 36.9965C60.6644 37.0473 62.9438 34.8503 62.9946 32.0894L57.9954 31.9974L52.9963 31.9054ZM58 31.5H63C63 31.3032 62.9982 31.1067 62.9946 30.9106L57.9954 31.0026L52.9963 31.0946C52.9988 31.2294 53 31.3645 53 31.5H58ZM50.5855 13.1153L54.1861 9.64612C53.9139 9.36358 53.6364 9.08611 53.3539 8.81389L49.8847 12.4145L46.4154 16.0151C46.6088 16.2014 46.7986 16.3912 46.9849 16.5846L50.5855 13.1153ZM31.9974 5.00457L32.0894 0.00542116C31.8933 0.0018115 31.6968 0 31.5 0V5V10C31.6355 10 31.7706 10.0012 31.9054 10.0037L31.9974 5.00457ZM31.5 5V0C31.3032 0 31.1067 0.0018115 30.9106 0.00542116L31.0026 5.00457L31.0946 10.0037C31.2294 10.0012 31.3645 10 31.5 10V5ZM13.1153 12.4145L9.64612 8.81389C9.36358 9.08612 9.08611 9.36358 8.81389 9.64612L12.4145 13.1153L16.0151 16.5846C16.2014 16.3912 16.3912 16.2014 16.5846 16.0151L13.1153 12.4145ZM5.00457 31.0026L0.00542116 30.9106C0.0018115 31.1067 0 31.3032 0 31.5H5H10C10 31.3645 10.0012 31.2294 10.0037 31.0946L5.00457 31.0026ZM5 31.5H0C0 31.6968 0.0018115 31.8933 0.00542116 32.0894L5.00457 31.9974L10.0037 31.9054C10.0012 31.7706 10 31.6355 10 31.5H5ZM12.4145 49.8847L8.81389 53.3539C9.08612 53.6364 9.36358 53.9139 9.64612 54.1861L13.1153 50.5855L16.5846 46.9849C16.3912 46.7986 16.2014 46.6088 16.0151 46.4154L12.4145 49.8847ZM31.0026 57.9954L30.9106 62.9946C31.1067 62.9982 31.3032 63 31.5 63V58V53C31.3645 53 31.2294 52.9988 31.0946 52.9963L31.0026 57.9954ZM31.5 58V63C31.6968 63 31.8933 62.9982 32.0894 62.9946L31.9974 57.9954L31.9054 52.9963C31.7706 52.9988 31.6355 53 31.5 53V58ZM49.8847 50.5855L53.3539 54.1861C53.6364 53.9139 53.9139 53.6364 54.1861 53.3539L50.5855 49.8847L46.9849 46.4154C46.7986 46.6088 46.6088 46.7986 46.4154 46.9849L49.8847 50.5855ZM57.9954 31.9974L62.9946 32.0894C62.9982 31.8933 63 31.6968 63 31.5H58H53C53 31.6355 52.9988 31.7706 52.9963 31.9054L57.9954 31.9974Z"/></clipPath><clipPath id="paint1_angular_910_15986_clip_path"><path d="M116.353 8.81324C114.365 6.89684 111.2 6.95514 109.283 8.94334C107.367 10.9315 107.425 14.0968 109.414 16.0132L112.883 12.4132L116.353 8.81324ZM94.9026 10.0037C97.6635 10.055 99.9433 7.85844 99.9946 5.09754C100.046 2.33658 97.8494 0.0567775 95.0884 0.0054675L94.9955 5.00464L94.9026 10.0037ZM93.9115 0.0054675C91.1505 0.0567875 88.9539 2.33658 89.0053 5.09754C89.0566 7.85844 91.3364 10.055 94.0973 10.0037L94.0044 5.00464L93.9115 0.0054675ZM79.5864 16.0132C81.5747 14.0968 81.6329 10.9315 79.7166 8.94334C77.8002 6.95514 74.6349 6.89684 72.6467 8.81324L76.1166 12.4132L79.5864 16.0132ZM71.8132 9.64674C69.8968 11.6349 69.9551 14.8002 71.9433 16.7166C73.9315 18.6329 77.0968 18.5747 79.0132 16.5864L75.4132 13.1166L71.8132 9.64674ZM73.0037 31.0973C73.055 28.3364 70.8584 26.0566 68.0975 26.0053C65.3366 25.954 63.0568 28.1505 63.0055 30.9115L68.0046 31.0044L73.0037 31.0973ZM63.0055 32.0884C63.0568 34.8494 65.3366 37.046 68.0975 36.9947C70.8584 36.9433 73.055 34.6635 73.0037 31.9026L68.0046 31.9955L63.0055 32.0884ZM79.0132 46.4135C77.0968 44.4253 73.9315 44.367 71.9433 46.2834C69.9551 48.1997 69.8968 51.365 71.8132 53.3532L75.4132 49.8834L79.0132 46.4135ZM72.6467 54.1868C74.6349 56.1031 77.8002 56.0448 79.7166 54.0566C81.6329 52.0684 81.5747 48.9031 79.5864 46.9867L76.1166 50.5868L72.6467 54.1868ZM94.0973 52.9962C91.3364 52.9449 89.0566 55.1415 89.0053 57.9024C88.954 60.6634 91.1505 62.9432 93.9115 62.9945L94.0044 57.9954L94.0973 52.9962ZM95.0884 62.9945C97.8494 62.9432 100.046 60.6634 99.9947 57.9024C99.9433 55.1415 97.6635 52.9449 94.9026 52.9962L94.9955 57.9954L95.0884 62.9945ZM109.414 46.9867C107.425 48.9031 107.367 52.0684 109.283 54.0566C111.2 56.0448 114.365 56.1031 116.353 54.1868L112.883 50.5868L109.414 46.9867ZM117.187 53.3532C119.103 51.365 119.045 48.1997 117.057 46.2834C115.068 44.367 111.903 44.4253 109.987 46.4135L113.587 49.8834L117.187 53.3532ZM115.996 31.9026C115.945 34.6635 118.142 36.9433 120.902 36.9946C123.663 37.046 125.943 34.8494 125.995 32.0884L120.995 31.9955L115.996 31.9026ZM125.995 30.9115C125.943 28.1505 123.663 25.9539 120.902 26.0053C118.142 26.0566 115.945 28.3364 115.996 31.0973L120.995 31.0044L125.995 30.9115ZM109.987 16.5864C111.903 18.5747 115.068 18.6329 117.057 16.7166C119.045 14.8002 119.103 11.6349 117.187 9.64674L113.587 13.1166L109.987 16.5864ZM113.238 12.7616L116.774 9.22614C116.635 9.08694 116.494 8.94934 116.353 8.81324L112.883 12.4132L109.414 16.0132C109.511 16.1067 109.607 16.2014 109.703 16.2972L113.238 12.7616ZM94.9955 5.00464L95.0884 0.0054675C94.6961 -0.0018225 94.3038 -0.0018225 93.9115 0.0054675L94.0044 5.00464L94.0973 10.0037C94.3657 9.99874 94.6342 9.99874 94.9026 10.0037L94.9955 5.00464ZM76.1166 12.4132L72.6467 8.81324C72.5055 8.94934 72.3653 9.08694 72.2261 9.22614L75.7616 12.7616L79.2972 16.2972C79.393 16.2014 79.4894 16.1067 79.5864 16.0132L76.1166 12.4132ZM75.7616 12.7616L72.2261 9.22614C72.0869 9.36534 71.9493 9.50554 71.8132 9.64674L75.4132 13.1166L79.0132 16.5864C79.1067 16.4894 79.2014 16.393 79.2972 16.2972L75.7616 12.7616ZM68.0046 31.0044L63.0055 30.9115C62.9982 31.3038 62.9982 31.6962 63.0055 32.0884L68.0046 31.9955L73.0037 31.9026C72.9987 31.6342 72.9987 31.3657 73.0037 31.0973L68.0046 31.0044ZM75.4132 49.8834L71.8132 53.3532C71.9493 53.4944 72.0869 53.6346 72.2261 53.7738L75.7616 50.2383L79.2972 46.7028C79.2014 46.607 79.1067 46.5105 79.0132 46.4135L75.4132 49.8834ZM75.7616 50.2383L72.2261 53.7738C72.3653 53.913 72.5055 54.0506 72.6467 54.1868L76.1166 50.5868L79.5864 46.9867C79.4894 46.8932 79.393 46.7985 79.2972 46.7028L75.7616 50.2383ZM94.0044 57.9954L93.9115 62.9945C94.3038 63.0018 94.6962 63.0018 95.0884 62.9945L94.9955 57.9954L94.9026 52.9962C94.6342 53.0012 94.3657 53.0012 94.0973 52.9962L94.0044 57.9954ZM112.883 50.5868L116.353 54.1868C116.494 54.0506 116.635 53.913 116.774 53.7738L113.238 50.2383L109.703 46.7028C109.607 46.7985 109.511 46.8932 109.414 46.9867L112.883 50.5868ZM113.238 50.2383L116.774 53.7738C116.913 53.6346 117.051 53.4944 117.187 53.3532L113.587 49.8834L109.987 46.4135C109.893 46.5105 109.799 46.607 109.703 46.7028L113.238 50.2383ZM120.995 31.9955L125.995 32.0884C126.002 31.6961 126.002 31.3038 125.995 30.9115L120.995 31.0044L115.996 31.0973C116.001 31.3657 116.001 31.6342 115.996 31.9026L120.995 31.9955ZM113.587 13.1166L117.187 9.64674C117.051 9.50554 116.913 9.36534 116.774 9.22614L113.238 12.7616L109.703 16.2972C109.799 16.393 109.893 16.4894 109.987 16.5864L113.587 13.1166Z"/></clipPath><clipPath id="paint2_angular_910_15986_clip_path"><path d="M156.911 0.00542068C154.15 0.0562401 151.953 2.33564 152.003 5.09659C152.054 7.85755 154.334 10.0545 157.095 10.0037L157.003 5.00457L156.911 0.00542068ZM142.585 16.0151C144.573 14.0991 144.632 10.9339 142.716 8.9453C140.8 6.95673 137.635 6.89789 135.646 8.81389L139.115 12.4145L142.585 16.0151ZM134.814 9.64612C132.898 11.6347 132.957 14.8 134.945 16.716C136.934 18.632 140.099 18.5731 142.015 16.5846L138.415 13.1153L134.814 9.64612ZM136.004 31.0946C136.055 28.3337 133.858 26.0543 131.097 26.0035C128.336 25.9527 126.056 28.1497 126.005 30.9106L131.005 31.0026L136.004 31.0946ZM126.005 32.0894C126.056 34.8504 128.336 37.0473 131.097 36.9965C133.858 36.9457 136.055 34.6663 136.004 31.9054L131.005 31.9974L126.005 32.0894ZM142.015 46.4154C140.099 44.4269 136.934 44.368 134.945 46.284C132.957 48.2 132.898 51.3653 134.814 53.3539L138.415 49.8847L142.015 46.4154ZM135.646 54.1861C137.635 56.1021 140.8 56.0433 142.716 54.0547C144.632 52.0661 144.573 48.9009 142.585 46.9849L139.115 50.5855L135.646 54.1861ZM157.095 52.9963C154.334 52.9455 152.054 55.1425 152.003 57.9034C151.953 60.6644 154.15 62.9438 156.911 62.9946L157.003 57.9954L157.095 52.9963ZM158.089 62.9946C160.85 62.9438 163.047 60.6644 162.996 57.9034C162.946 55.1425 160.666 52.9455 157.905 52.9963L157.997 57.9954L158.089 62.9946ZM172.415 46.9849C170.427 48.9009 170.368 52.0661 172.284 54.0547C174.2 56.0433 177.365 56.1021 179.354 54.1861L175.885 50.5855L172.415 46.9849ZM180.186 53.3539C182.102 51.3653 182.043 48.2 180.055 46.284C178.066 44.368 174.901 44.4269 172.985 46.4154L176.585 49.8847L180.186 53.3539ZM178.996 31.9054C178.945 34.6663 181.143 36.9457 183.903 36.9965C186.664 37.0473 188.944 34.8503 188.995 32.0894L183.995 31.9974L178.996 31.9054ZM188.995 30.9106C188.944 28.1496 186.664 25.9527 183.903 26.0035C181.143 26.0543 178.945 28.3337 178.996 31.0946L183.995 31.0026L188.995 30.9106ZM172.985 16.5846C174.901 18.5731 178.066 18.632 180.055 16.716C182.043 14.8 182.102 11.6347 180.186 9.64611L176.585 13.1153L172.985 16.5846ZM179.354 8.81388C177.365 6.89789 174.2 6.95672 172.284 8.94529C170.368 10.9339 170.427 14.0991 172.415 16.0151L175.885 12.4145L179.354 8.81388ZM157.905 10.0037C160.666 10.0545 162.946 7.85755 162.996 5.09659C163.047 2.33564 160.85 0.0562401 158.089 0.00542068L157.997 5.00457L157.905 10.0037ZM157.5 5V0C157.303 0 157.107 0.00181198 156.911 0.00542068L157.003 5.00457L157.095 10.0037C157.229 10.0012 157.365 10 157.5 10V5ZM139.115 12.4145L135.646 8.81389C135.364 9.08612 135.086 9.36358 134.814 9.64612L138.415 13.1153L142.015 16.5846C142.201 16.3912 142.391 16.2014 142.585 16.0151L139.115 12.4145ZM131.005 31.0026L126.005 30.9106C126.002 31.1067 126 31.3032 126 31.5H131H136C136 31.3645 136.001 31.2294 136.004 31.0946L131.005 31.0026ZM131 31.5H126C126 31.6968 126.002 31.8933 126.005 32.0894L131.005 31.9974L136.004 31.9054C136.001 31.7706 136 31.6355 136 31.5H131ZM138.415 49.8847L134.814 53.3539C135.086 53.6364 135.364 53.9139 135.646 54.1861L139.115 50.5855L142.585 46.9849C142.391 46.7986 142.201 46.6088 142.015 46.4154L138.415 49.8847ZM157.003 57.9954L156.911 62.9946C157.107 62.9982 157.303 63 157.5 63V58V53C157.365 53 157.229 52.9988 157.095 52.9963L157.003 57.9954ZM157.5 58V63C157.697 63 157.893 62.9982 158.089 62.9946L157.997 57.9954L157.905 52.9963C157.771 52.9988 157.635 53 157.5 53V58ZM175.885 50.5855L179.354 54.1861C179.636 53.9139 179.914 53.6364 180.186 53.3539L176.585 49.8847L172.985 46.4154C172.799 46.6088 172.609 46.7986 172.415 46.9849L175.885 50.5855ZM183.995 31.9974L188.995 32.0894C188.998 31.8933 189 31.6968 189 31.5H184H179C179 31.6355 178.999 31.7706 178.996 31.9054L183.995 31.9974ZM184 31.5H189C189 31.3032 188.998 31.1067 188.995 30.9106L183.995 31.0026L178.996 31.0946C178.999 31.2294 179 31.3645 179 31.5H184ZM176.585 13.1153L180.186 9.64611C179.914 9.36357 179.636 9.08611 179.354 8.81388L175.885 12.4145L172.415 16.0151C172.609 16.2014 172.799 16.3912 172.985 16.5846L176.585 13.1153ZM157.997 5.00457L158.089 0.00542068C157.893 0.00181198 157.697 0 157.5 0V5V10C157.635 10 157.771 10.0012 157.905 10.0037L157.997 5.00457Z"/></clipPath><clipPath id="paint3_angular_910_15986_clip_path"><path d="M197.813 9.64674C195.897 11.6349 195.955 14.8002 197.943 16.7166C199.932 18.6329 203.097 18.5747 205.013 16.5864L201.413 13.1166L197.813 9.64674ZM199.004 31.0973C199.055 28.3364 196.858 26.0566 194.098 26.0053C191.337 25.954 189.057 28.1505 189.005 30.9115L194.005 31.0044L199.004 31.0973ZM189.005 32.0884C189.057 34.8494 191.337 37.046 194.098 36.9947C196.858 36.9433 199.055 34.6635 199.004 31.9026L194.005 31.9955L189.005 32.0884ZM205.013 46.4135C203.097 44.4253 199.932 44.367 197.943 46.2834C195.955 48.1997 195.897 51.365 197.813 53.3532L201.413 49.8834L205.013 46.4135ZM198.647 54.1868C200.635 56.1031 203.8 56.0448 205.717 54.0566C207.633 52.0684 207.575 48.9031 205.586 46.9867L202.117 50.5868L198.647 54.1868ZM220.097 52.9962C217.336 52.9449 215.057 55.1415 215.005 57.9024C214.954 60.6634 217.151 62.9432 219.912 62.9945L220.004 57.9954L220.097 52.9962ZM221.088 62.9945C223.849 62.9432 226.046 60.6634 225.995 57.9024C225.943 55.1415 223.664 52.9449 220.903 52.9962L220.996 57.9954L221.088 62.9945ZM235.414 46.9867C233.425 48.9031 233.367 52.0684 235.283 54.0566C237.2 56.0448 240.365 56.1031 242.353 54.1868L238.883 50.5868L235.414 46.9867ZM243.187 53.3532C245.103 51.365 245.045 48.1997 243.057 46.2834C241.068 44.367 237.903 44.4253 235.987 46.4135L239.587 49.8834L243.187 53.3532ZM241.996 31.9026C241.945 34.6635 244.142 36.9433 246.902 36.9946C249.663 37.046 251.943 34.8494 251.995 32.0884L246.995 31.9955L241.996 31.9026ZM251.995 30.9115C251.943 28.1505 249.663 25.9539 246.902 26.0053C244.142 26.0566 241.945 28.3364 241.996 31.0973L246.995 31.0044L251.995 30.9115ZM235.987 16.5864C237.903 18.5747 241.068 18.6329 243.057 16.7166C245.045 14.8002 245.103 11.6349 243.187 9.64674L239.587 13.1166L235.987 16.5864ZM242.353 8.81324C240.365 6.89684 237.2 6.95514 235.283 8.94334C233.367 10.9315 233.425 14.0968 235.414 16.0132L238.883 12.4132L242.353 8.81324ZM220.903 10.0037C223.664 10.055 225.943 7.85844 225.995 5.09754C226.046 2.33658 223.849 0.0567813 221.088 0.00547125L220.996 5.00464L220.903 10.0037ZM219.912 0.00547125C217.151 0.0567913 214.954 2.33658 215.005 5.09754C215.057 7.85844 217.336 10.055 220.097 10.0037L220.004 5.00464L219.912 0.00547125ZM205.586 16.0132C207.575 14.0968 207.633 10.9315 205.717 8.94334C203.8 6.95514 200.635 6.89684 198.647 8.81324L202.117 12.4132L205.586 16.0132ZM201.762 12.7616L198.226 9.22614C198.087 9.36534 197.949 9.50554 197.813 9.64674L201.413 13.1166L205.013 16.5864C205.107 16.4894 205.201 16.393 205.297 16.2972L201.762 12.7616ZM194.005 31.0044L189.005 30.9115C188.998 31.3038 188.998 31.6962 189.005 32.0884L194.005 31.9955L199.004 31.9026C198.999 31.6342 198.999 31.3657 199.004 31.0973L194.005 31.0044ZM201.413 49.8834L197.813 53.3532C197.949 53.4944 198.087 53.6346 198.226 53.7738L201.762 50.2383L205.297 46.7028C205.201 46.607 205.107 46.5105 205.013 46.4135L201.413 49.8834ZM201.762 50.2383L198.226 53.7738C198.365 53.913 198.506 54.0506 198.647 54.1868L202.117 50.5868L205.586 46.9867C205.489 46.8932 205.393 46.7985 205.297 46.7028L201.762 50.2383ZM220.004 57.9954L219.912 62.9945C220.304 63.0018 220.696 63.0018 221.088 62.9945L220.996 57.9954L220.903 52.9962C220.634 53.0012 220.366 53.0012 220.097 52.9962L220.004 57.9954ZM238.883 50.5868L242.353 54.1868C242.494 54.0506 242.635 53.913 242.774 53.7738L239.238 50.2383L235.703 46.7028C235.607 46.7985 235.511 46.8932 235.414 46.9867L238.883 50.5868ZM239.238 50.2383L242.774 53.7738C242.913 53.6346 243.051 53.4944 243.187 53.3532L239.587 49.8834L235.987 46.4135C235.893 46.5105 235.799 46.607 235.703 46.7028L239.238 50.2383ZM246.995 31.9955L251.995 32.0884C252.002 31.6961 252.002 31.3038 251.995 30.9115L246.995 31.0044L241.996 31.0973C242.001 31.3657 242.001 31.6342 241.996 31.9026L246.995 31.9955ZM239.587 13.1166L243.187 9.64674C243.051 9.50554 242.913 9.36534 242.774 9.22614L239.238 12.7616L235.703 16.2972C235.799 16.393 235.893 16.4894 235.987 16.5864L239.587 13.1166ZM239.238 12.7616L242.774 9.22614C242.635 9.08694 242.494 8.94934 242.353 8.81324L238.883 12.4132L235.414 16.0132C235.511 16.1067 235.607 16.2014 235.703 16.2972L239.238 12.7616ZM220.996 5.00464L221.088 0.00547125C220.696 -0.00181875 220.304 -0.00182875 219.912 0.00547125L220.004 5.00464L220.097 10.0037C220.366 9.99874 220.634 9.99874 220.903 10.0037L220.996 5.00464ZM202.117 12.4132L198.647 8.81324C198.506 8.94934 198.365 9.08694 198.226 9.22614L201.762 12.7616L205.297 16.2972C205.393 16.2014 205.489 16.1067 205.586 16.0132L202.117 12.4132Z"/></clipPath><clipPath id="paint4_angular_910_15986_clip_path"><path d="M252.005 32.0894C252.056 34.8504 254.336 37.0473 257.097 36.9965C259.858 36.9457 262.055 34.6663 262.004 31.9054L257.005 31.9974L252.005 32.0894ZM268.015 46.4154C266.099 44.4269 262.934 44.368 260.945 46.284C258.957 48.2 258.898 51.3653 260.814 53.3539L264.415 49.8847L268.015 46.4154ZM261.646 54.1861C263.635 56.1021 266.8 56.0433 268.716 54.0547C270.632 52.0661 270.573 48.9009 268.585 46.9849L265.115 50.5855L261.646 54.1861ZM283.095 52.9963C280.334 52.9455 278.054 55.1425 278.003 57.9034C277.953 60.6644 280.15 62.9438 282.911 62.9946L283.003 57.9954L283.095 52.9963ZM284.089 62.9946C286.85 62.9438 289.047 60.6644 288.996 57.9034C288.946 55.1425 286.666 52.9455 283.905 52.9963L283.997 57.9954L284.089 62.9946ZM298.415 46.9849C296.427 48.9009 296.368 52.0661 298.284 54.0547C300.2 56.0433 303.365 56.1021 305.354 54.1861L301.885 50.5855L298.415 46.9849ZM306.186 53.3539C308.102 51.3653 308.043 48.2 306.055 46.284C304.066 44.368 300.901 44.4269 298.985 46.4154L302.585 49.8847L306.186 53.3539ZM304.996 31.9054C304.945 34.6663 307.143 36.9457 309.903 36.9965C312.664 37.0473 314.944 34.8503 314.995 32.0894L309.995 31.9974L304.996 31.9054ZM314.995 30.9106C314.944 28.1496 312.664 25.9527 309.903 26.0035C307.143 26.0543 304.945 28.3337 304.996 31.0946L309.995 31.0026L314.995 30.9106ZM298.985 16.5846C300.901 18.5731 304.066 18.632 306.055 16.716C308.043 14.8 308.102 11.6347 306.186 9.64611L302.585 13.1153L298.985 16.5846ZM305.354 8.81388C303.365 6.89789 300.2 6.95672 298.284 8.94529C296.368 10.9339 296.427 14.0991 298.415 16.0151L301.885 12.4145L305.354 8.81388ZM283.905 10.0037C286.666 10.0545 288.946 7.85755 288.996 5.09659C289.047 2.33564 286.85 0.0562401 284.089 0.00542068L283.997 5.00457L283.905 10.0037ZM282.911 0.00542068C280.15 0.0562401 277.953 2.33564 278.003 5.09659C278.054 7.85755 280.334 10.0545 283.095 10.0037L283.003 5.00457L282.911 0.00542068ZM268.585 16.0151C270.573 14.0991 270.632 10.9339 268.716 8.9453C266.8 6.95673 263.635 6.89789 261.646 8.81389L265.115 12.4145L268.585 16.0151ZM260.814 9.64612C258.898 11.6347 258.957 14.8 260.945 16.716C262.934 18.632 266.099 18.5731 268.015 16.5846L264.415 13.1153L260.814 9.64612ZM262.004 31.0946C262.055 28.3337 259.858 26.0543 257.097 26.0035C254.336 25.9527 252.056 28.1497 252.005 30.9106L257.005 31.0026L262.004 31.0946ZM257 31.5H252C252 31.6968 252.002 31.8933 252.005 32.0894L257.005 31.9974L262.004 31.9054C262.001 31.7706 262 31.6355 262 31.5H257ZM264.415 49.8847L260.814 53.3539C261.086 53.6364 261.364 53.9139 261.646 54.1861L265.115 50.5855L268.585 46.9849C268.391 46.7986 268.201 46.6088 268.015 46.4154L264.415 49.8847ZM283.003 57.9954L282.911 62.9946C283.107 62.9982 283.303 63 283.5 63V58V53C283.365 53 283.229 52.9988 283.095 52.9963L283.003 57.9954ZM283.5 58V63C283.697 63 283.893 62.9982 284.089 62.9946L283.997 57.9954L283.905 52.9963C283.771 52.9988 283.635 53 283.5 53V58ZM301.885 50.5855L305.354 54.1861C305.636 53.9139 305.914 53.6364 306.186 53.3539L302.585 49.8847L298.985 46.4154C298.799 46.6088 298.609 46.7986 298.415 46.9849L301.885 50.5855ZM309.995 31.9974L314.995 32.0894C314.998 31.8933 315 31.6968 315 31.5H310H305C305 31.6355 304.999 31.7706 304.996 31.9054L309.995 31.9974ZM310 31.5H315C315 31.3032 314.998 31.1067 314.995 30.9106L309.995 31.0026L304.996 31.0946C304.999 31.2294 305 31.3645 305 31.5H310ZM302.585 13.1153L306.186 9.64611C305.914 9.36357 305.636 9.08611 305.354 8.81388L301.885 12.4145L298.415 16.0151C298.609 16.2014 298.799 16.3912 298.985 16.5846L302.585 13.1153ZM283.997 5.00457L284.089 0.00542068C283.893 0.00181198 283.697 0 283.5 0V5V10C283.635 10 283.771 10.0012 283.905 10.0037L283.997 5.00457ZM283.5 5V0C283.303 0 283.107 0.00181198 282.911 0.00542068L283.003 5.00457L283.095 10.0037C283.229 10.0012 283.365 10 283.5 10V5ZM265.115 12.4145L261.646 8.81389C261.364 9.08612 261.086 9.36358 260.814 9.64612L264.415 13.1153L268.015 16.5846C268.201 16.3912 268.391 16.2014 268.585 16.0151L265.115 12.4145ZM257.005 31.0026L252.005 30.9106C252.002 31.1067 252 31.3032 252 31.5H257H262C262 31.3645 262.001 31.2294 262.004 31.0946L257.005 31.0026Z"/></clipPath><clipPath id="paint5_angular_910_15986_clip_path"><path d="M324.647 54.1868C326.635 56.1031 329.8 56.0448 331.717 54.0566C333.633 52.0684 333.575 48.9031 331.586 46.9867L328.117 50.5868L324.647 54.1868ZM346.097 52.9962C343.336 52.9449 341.057 55.1415 341.005 57.9024C340.954 60.6634 343.151 62.9432 345.912 62.9945L346.004 57.9954L346.097 52.9962ZM347.088 62.9945C349.849 62.9432 352.046 60.6634 351.995 57.9024C351.943 55.1415 349.664 52.9449 346.903 52.9962L346.996 57.9954L347.088 62.9945ZM361.414 46.9867C359.425 48.9031 359.367 52.0684 361.283 54.0566C363.2 56.0448 366.365 56.1031 368.353 54.1868L364.883 50.5868L361.414 46.9867ZM369.187 53.3532C371.103 51.365 371.045 48.1997 369.057 46.2834C367.068 44.367 363.903 44.4253 361.987 46.4135L365.587 49.8834L369.187 53.3532ZM367.996 31.9026C367.945 34.6635 370.142 36.9433 372.902 36.9946C375.663 37.046 377.943 34.8494 377.995 32.0884L372.995 31.9955L367.996 31.9026ZM377.995 30.9115C377.943 28.1505 375.663 25.9539 372.902 26.0053C370.142 26.0566 367.945 28.3364 367.996 31.0973L372.995 31.0044L377.995 30.9115ZM361.987 16.5864C363.903 18.5747 367.068 18.6329 369.057 16.7166C371.045 14.8002 371.103 11.6349 369.187 9.64674L365.587 13.1166L361.987 16.5864ZM368.353 8.81324C366.365 6.89684 363.2 6.95514 361.283 8.94334C359.367 10.9315 359.425 14.0968 361.414 16.0132L364.883 12.4132L368.353 8.81324ZM346.903 10.0037C349.664 10.055 351.943 7.85844 351.995 5.09754C352.046 2.33658 349.849 0.0567775 347.088 0.0054675L346.996 5.00464L346.903 10.0037ZM345.912 0.0054675C343.151 0.0567875 340.954 2.33658 341.005 5.09754C341.057 7.85844 343.336 10.055 346.097 10.0037L346.004 5.00464L345.912 0.0054675ZM331.586 16.0132C333.575 14.0968 333.633 10.9315 331.717 8.94334C329.8 6.95514 326.635 6.89684 324.647 8.81324L328.117 12.4132L331.586 16.0132ZM323.813 9.64674C321.897 11.6349 321.955 14.8002 323.943 16.7166C325.932 18.6329 329.097 18.5747 331.013 16.5864L327.413 13.1166L323.813 9.64674ZM325.004 31.0973C325.055 28.3364 322.858 26.0566 320.098 26.0053C317.337 25.954 315.057 28.1505 315.005 30.9115L320.005 31.0044L325.004 31.0973ZM315.005 32.0884C315.057 34.8494 317.337 37.046 320.098 36.9947C322.858 36.9433 325.055 34.6635 325.004 31.9026L320.005 31.9955L315.005 32.0884ZM331.013 46.4135C329.097 44.4253 325.932 44.367 323.943 46.2834C321.955 48.1997 321.897 51.365 323.813 53.3532L327.413 49.8834L331.013 46.4135ZM327.762 50.2383L324.226 53.7738C324.365 53.913 324.506 54.0506 324.647 54.1868L328.117 50.5868L331.586 46.9867C331.489 46.8932 331.393 46.7985 331.297 46.7028L327.762 50.2383ZM346.004 57.9954L345.912 62.9945C346.304 63.0018 346.696 63.0018 347.088 62.9945L346.996 57.9954L346.903 52.9962C346.634 53.0012 346.366 53.0012 346.097 52.9962L346.004 57.9954ZM364.883 50.5868L368.353 54.1868C368.494 54.0506 368.635 53.913 368.774 53.7738L365.238 50.2383L361.703 46.7028C361.607 46.7985 361.511 46.8932 361.414 46.9867L364.883 50.5868ZM365.238 50.2383L368.774 53.7738C368.913 53.6346 369.051 53.4944 369.187 53.3532L365.587 49.8834L361.987 46.4135C361.893 46.5105 361.799 46.607 361.703 46.7028L365.238 50.2383ZM372.995 31.9955L377.995 32.0884C378.002 31.6962 378.002 31.3038 377.995 30.9115L372.995 31.0044L367.996 31.0973C368.001 31.3657 368.001 31.6342 367.996 31.9026L372.995 31.9955ZM365.587 13.1166L369.187 9.64674C369.051 9.50554 368.913 9.36534 368.774 9.22614L365.238 12.7616L361.703 16.2972C361.799 16.393 361.893 16.4894 361.987 16.5864L365.587 13.1166ZM365.238 12.7616L368.774 9.22614C368.635 9.08694 368.494 8.94934 368.353 8.81324L364.883 12.4132L361.414 16.0132C361.511 16.1067 361.607 16.2014 361.703 16.2972L365.238 12.7616ZM346.996 5.00464L347.088 0.0054675C346.696 -0.0018225 346.304 -0.0018225 345.912 0.0054675L346.004 5.00464L346.097 10.0037C346.366 9.99874 346.634 9.99874 346.903 10.0037L346.996 5.00464ZM328.117 12.4132L324.647 8.81324C324.506 8.94934 324.365 9.08694 324.226 9.22614L327.762 12.7616L331.297 16.2972C331.393 16.2014 331.489 16.1067 331.586 16.0132L328.117 12.4132ZM327.762 12.7616L324.226 9.22614C324.087 9.36534 323.949 9.50554 323.813 9.64674L327.413 13.1166L331.013 16.5864C331.107 16.4894 331.201 16.393 331.297 16.2972L327.762 12.7616ZM320.005 31.0044L315.005 30.9115C314.998 31.3038 314.998 31.6962 315.005 32.0884L320.005 31.9955L325.004 31.9026C324.999 31.6342 324.999 31.3657 325.004 31.0973L320.005 31.0044ZM327.413 49.8834L323.813 53.3532C323.949 53.4944 324.087 53.6346 324.226 53.7738L327.762 50.2383L331.297 46.7028C331.201 46.607 331.107 46.5105 331.013 46.4135L327.413 49.8834Z"/></clipPath><clipPath id="paint6_angular_910_15986_clip_path"><path d="M410.089 62.9946C412.85 62.9438 415.047 60.6644 414.996 57.9034C414.946 55.1425 412.666 52.9455 409.905 52.9963L409.997 57.9954L410.089 62.9946ZM424.415 46.9849C422.427 48.9009 422.368 52.0661 424.284 54.0547C426.2 56.0433 429.365 56.1021 431.354 54.1861L427.885 50.5855L424.415 46.9849ZM432.186 53.3539C434.102 51.3653 434.043 48.2 432.055 46.284C430.066 44.368 426.901 44.4269 424.985 46.4154L428.585 49.8847L432.186 53.3539ZM430.996 31.9054C430.945 34.6663 433.143 36.9457 435.903 36.9965C438.664 37.0473 440.944 34.8503 440.995 32.0894L435.995 31.9974L430.996 31.9054ZM440.995 30.9106C440.944 28.1496 438.664 25.9527 435.903 26.0035C433.143 26.0543 430.945 28.3337 430.996 31.0946L435.995 31.0026L440.995 30.9106ZM424.985 16.5846C426.901 18.5731 430.066 18.632 432.055 16.716C434.043 14.8 434.102 11.6347 432.186 9.64612L428.585 13.1153L424.985 16.5846ZM431.354 8.81389C429.365 6.89789 426.2 6.95672 424.284 8.94529C422.368 10.9339 422.427 14.0991 424.415 16.0151L427.885 12.4145L431.354 8.81389ZM409.905 10.0037C412.666 10.0545 414.946 7.85755 414.996 5.09659C415.047 2.33564 412.85 0.0562415 410.089 0.00542116L409.997 5.00457L409.905 10.0037ZM408.911 0.00542116C406.15 0.0562415 403.953 2.33564 404.003 5.09659C404.054 7.85755 406.334 10.0545 409.095 10.0037L409.003 5.00457L408.911 0.00542116ZM394.585 16.0151C396.573 14.0991 396.632 10.9339 394.716 8.9453C392.8 6.95673 389.635 6.89789 387.646 8.81389L391.115 12.4145L394.585 16.0151ZM386.814 9.64612C384.898 11.6347 384.957 14.8 386.945 16.716C388.934 18.632 392.099 18.5731 394.015 16.5846L390.415 13.1153L386.814 9.64612ZM388.004 31.0946C388.055 28.3337 385.858 26.0543 383.097 26.0035C380.336 25.9527 378.056 28.1497 378.005 30.9106L383.005 31.0026L388.004 31.0946ZM378.005 32.0894C378.056 34.8504 380.336 37.0473 383.097 36.9965C385.858 36.9457 388.055 34.6663 388.004 31.9054L383.005 31.9974L378.005 32.0894ZM394.015 46.4154C392.099 44.4269 388.934 44.368 386.945 46.284C384.957 48.2 384.898 51.3653 386.814 53.3539L390.415 49.8847L394.015 46.4154ZM387.646 54.1861C389.635 56.1021 392.8 56.0433 394.716 54.0547C396.632 52.0661 396.573 48.9009 394.585 46.9849L391.115 50.5855L387.646 54.1861ZM409.095 52.9963C406.334 52.9455 404.054 55.1425 404.003 57.9034C403.953 60.6644 406.15 62.9438 408.911 62.9946L409.003 57.9954L409.095 52.9963ZM409.5 58V63C409.697 63 409.893 62.9982 410.089 62.9946L409.997 57.9954L409.905 52.9963C409.771 52.9988 409.635 53 409.5 53V58ZM427.885 50.5855L431.354 54.1861C431.636 53.9139 431.914 53.6364 432.186 53.3539L428.585 49.8847L424.985 46.4154C424.799 46.6088 424.609 46.7986 424.415 46.9849L427.885 50.5855ZM435.995 31.9974L440.995 32.0894C440.998 31.8933 441 31.6968 441 31.5H436H431C431 31.6355 430.999 31.7706 430.996 31.9054L435.995 31.9974ZM436 31.5H441C441 31.3032 440.998 31.1067 440.995 30.9106L435.995 31.0026L430.996 31.0946C430.999 31.2294 431 31.3645 431 31.5H436ZM428.585 13.1153L432.186 9.64612C431.914 9.36358 431.636 9.08611 431.354 8.81389L427.885 12.4145L424.415 16.0151C424.609 16.2014 424.799 16.3912 424.985 16.5846L428.585 13.1153ZM409.997 5.00457L410.089 0.00542116C409.893 0.0018115 409.697 0 409.5 0V5V10C409.635 10 409.771 10.0012 409.905 10.0037L409.997 5.00457ZM409.5 5V0C409.303 0 409.107 0.0018115 408.911 0.00542116L409.003 5.00457L409.095 10.0037C409.229 10.0012 409.365 10 409.5 10V5ZM391.115 12.4145L387.646 8.81389C387.364 9.08612 387.086 9.36358 386.814 9.64612L390.415 13.1153L394.015 16.5846C394.201 16.3912 394.391 16.2014 394.585 16.0151L391.115 12.4145ZM383.005 31.0026L378.005 30.9106C378.002 31.1067 378 31.3032 378 31.5H383H388C388 31.3645 388.001 31.2294 388.004 31.0946L383.005 31.0026ZM383 31.5H378C378 31.6968 378.002 31.8933 378.005 32.0894L383.005 31.9974L388.004 31.9054C388.001 31.7706 388 31.6355 388 31.5H383ZM390.415 49.8847L386.814 53.3539C387.086 53.6364 387.364 53.9139 387.646 54.1861L391.115 50.5855L394.585 46.9849C394.391 46.7986 394.201 46.6088 394.015 46.4154L390.415 49.8847ZM409.003 57.9954L408.911 62.9946C409.107 62.9982 409.303 63 409.5 63V58V53C409.365 53 409.229 52.9988 409.095 52.9963L409.003 57.9954Z"/></clipPath><clipPath id="paint7_angular_910_15986_clip_path"><path d="M495.187 53.3532C497.103 51.365 497.045 48.1997 495.057 46.2834C493.068 44.367 489.903 44.4253 487.987 46.4135L491.587 49.8834L495.187 53.3532ZM493.996 31.9026C493.945 34.6635 496.142 36.9433 498.902 36.9946C501.663 37.046 503.943 34.8494 503.995 32.0884L498.995 31.9955L493.996 31.9026ZM503.995 30.9115C503.943 28.1505 501.663 25.9539 498.902 26.0053C496.142 26.0566 493.945 28.3364 493.996 31.0973L498.995 31.0044L503.995 30.9115ZM487.987 16.5864C489.903 18.5747 493.068 18.6329 495.057 16.7166C497.045 14.8002 497.103 11.6349 495.187 9.64674L491.587 13.1166L487.987 16.5864ZM494.353 8.81324C492.365 6.89684 489.2 6.95514 487.283 8.94334C485.367 10.9315 485.425 14.0968 487.414 16.0132L490.883 12.4132L494.353 8.81324ZM472.903 10.0037C475.664 10.055 477.943 7.85844 477.995 5.09754C478.046 2.33658 475.849 0.0567875 473.088 0.0054675L472.996 5.00464L472.903 10.0037ZM471.912 0.0054675C469.151 0.0567875 466.954 2.33658 467.005 5.09754C467.057 7.85844 469.336 10.055 472.097 10.0037L472.004 5.00464L471.912 0.0054675ZM457.586 16.0132C459.575 14.0968 459.633 10.9315 457.717 8.94334C455.8 6.95514 452.635 6.89684 450.647 8.81324L454.117 12.4132L457.586 16.0132ZM449.813 9.64674C447.897 11.6349 447.955 14.8002 449.943 16.7166C451.932 18.6329 455.097 18.5747 457.013 16.5864L453.413 13.1166L449.813 9.64674ZM451.004 31.0973C451.055 28.3364 448.858 26.0566 446.098 26.0053C443.337 25.954 441.057 28.1505 441.005 30.9115L446.005 31.0044L451.004 31.0973ZM441.005 32.0884C441.057 34.8494 443.337 37.046 446.098 36.9947C448.858 36.9433 451.055 34.6635 451.004 31.9026L446.005 31.9955L441.005 32.0884ZM457.013 46.4135C455.097 44.4253 451.932 44.367 449.943 46.2834C447.955 48.1997 447.897 51.365 449.813 53.3532L453.413 49.8834L457.013 46.4135ZM450.647 54.1868C452.635 56.1031 455.8 56.0448 457.717 54.0566C459.633 52.0684 459.575 48.9031 457.586 46.9867L454.117 50.5868L450.647 54.1868ZM472.097 52.9962C469.336 52.9449 467.057 55.1415 467.005 57.9024C466.954 60.6634 469.151 62.9432 471.912 62.9945L472.004 57.9954L472.097 52.9962ZM473.088 62.9945C475.849 62.9432 478.046 60.6634 477.995 57.9024C477.943 55.1415 475.664 52.9449 472.903 52.9962L472.996 57.9954L473.088 62.9945ZM487.414 46.9867C485.425 48.9031 485.367 52.0684 487.283 54.0566C489.2 56.0448 492.365 56.1031 494.353 54.1868L490.883 50.5868L487.414 46.9867ZM491.238 50.2383L494.774 53.7738C494.913 53.6346 495.051 53.4944 495.187 53.3532L491.587 49.8834L487.987 46.4135C487.893 46.5105 487.799 46.607 487.703 46.7028L491.238 50.2383ZM498.995 31.9955L503.995 32.0884C504.002 31.6961 504.002 31.3038 503.995 30.9115L498.995 31.0044L493.996 31.0973C494.001 31.3657 494.001 31.6342 493.996 31.9026L498.995 31.9955ZM491.587 13.1166L495.187 9.64674C495.051 9.50554 494.913 9.36534 494.774 9.22614L491.238 12.7616L487.703 16.2972C487.799 16.393 487.893 16.4894 487.987 16.5864L491.587 13.1166ZM491.238 12.7616L494.774 9.22614C494.635 9.08694 494.494 8.94934 494.353 8.81324L490.883 12.4132L487.414 16.0132C487.511 16.1067 487.607 16.2014 487.703 16.2972L491.238 12.7616ZM472.996 5.00464L473.088 0.0054675C472.696 -0.0018225 472.304 -0.0018225 471.912 0.0054675L472.004 5.00464L472.097 10.0037C472.366 9.99874 472.634 9.99874 472.903 10.0037L472.996 5.00464ZM454.117 12.4132L450.647 8.81324C450.506 8.94934 450.365 9.08694 450.226 9.22614L453.762 12.7616L457.297 16.2972C457.393 16.2014 457.489 16.1067 457.586 16.0132L454.117 12.4132ZM453.762 12.7616L450.226 9.22614C450.087 9.36534 449.949 9.50554 449.813 9.64674L453.413 13.1166L457.013 16.5864C457.107 16.4894 457.201 16.393 457.297 16.2972L453.762 12.7616ZM446.005 31.0044L441.005 30.9115C440.998 31.3038 440.998 31.6962 441.005 32.0884L446.005 31.9955L451.004 31.9026C450.999 31.6342 450.999 31.3657 451.004 31.0973L446.005 31.0044ZM453.413 49.8834L449.813 53.3532C449.949 53.4944 450.087 53.6346 450.226 53.7738L453.762 50.2383L457.297 46.7028C457.201 46.607 457.107 46.5105 457.013 46.4135L453.413 49.8834ZM453.762 50.2383L450.226 53.7738C450.365 53.913 450.506 54.0506 450.647 54.1868L454.117 50.5868L457.586 46.9867C457.489 46.8932 457.393 46.7985 457.297 46.7028L453.762 50.2383ZM472.004 57.9954L471.912 62.9945C472.304 63.0018 472.696 63.0018 473.088 62.9945L472.996 57.9954L472.903 52.9962C472.634 53.0012 472.366 53.0012 472.097 52.9962L472.004 57.9954ZM490.883 50.5868L494.353 54.1868C494.494 54.0506 494.635 53.913 494.774 53.7738L491.238 50.2383L487.703 46.7028C487.607 46.7985 487.511 46.8932 487.414 46.9867L490.883 50.5868Z"/></clipPath></defs>
</svg>
